<ttFont>
<head>
    <!-- Most of this table will be recalculated by the compiler -->
    <tableVersion value="1.0"/>
    <fontRevision value="1.0"/>
    <checkSumAdjustment value="0x86c2b437"/>
    <magicNumber value="0x5f0f3cf5"/>
    <flags value="00000000 00000011"/>
    <unitsPerEm value="2048"/>
    <created value="Thu Aug 15 19:02:11 2019"/>
    <modified value="Fri Aug 16 02:19:13 2019"/>
    <xMin value="-490"/>
    <yMin value="-511"/>
    <xMax value="3566"/>
    <yMax value="1995"/>
<macStyle value="00000000 00000000"/>
    <lowestRecPPEM value="3"/>
    <fontDirectionHint value="2"/>
    <indexToLocFormat value="0"/>
    <glyphDataFormat value="0"/>
  </head>
          <CharString index="0">
            rmoveto
            73 callsubr
            return
          </CharString>
          <CharString index="1">
            459 -348 289 return
          </CharString>
          <CharString index="2">
            rmoveto
            50 callsubr
            return
          </CharString>
          <CharString index="3">
            -614 -75 vlineto
            138 -18 return
          </CharString>
          <CharString index="4">
            rmoveto
            -24 callsubr
            39 callsubr
            endchar
          </CharString>
          <CharString index="5">
            -1038 80 callsubr
            return
          </CharString>
          <CharString index="6">
            -404 83 callsubr
            70 callsubr
            289 41 callsubr
            endchar
          </CharString>
          <CharString index="7">
            311 -228 208 -310 -315 -233 -216 -312 return
          </CharString>
          <CharString index="8">
            31 callsubr
            endchar
          </CharString>
          <CharString index="9">
            407 47 0 69 -66 18 rlineto
            -57 16 return
          </CharString>
          <CharString index="10">
            rmoveto
            314 235 217 311 return
          </CharString>
          <CharString index="11">
            159 callsubr
            endchar
          </CharString>
          <CharString index="12">
            19 -21 -89 vvcurveto
            -102 callsubr
            return
          </CharString>
          <CharString index="13">
            rmoveto
            -40 callsubr
            1165 -38 callsubr
            -44 callsubr
            endchar
          </CharString>
          <CharString index="14">
            -17 9 -14 -58 vvcurveto
            -617 24 callsubr
            return
          </CharString>
          <CharString index="15">
            -82 callsubr
            endchar
          </CharString>
          <CharString index="16">
            rmoveto
            -322 228 -196 295 return
          </CharString>
          <CharString index="17">
            42 callsubr
            endchar
          </CharString>
          <CharString index="18">
            43 callsubr
            endchar
          </CharString>
          <CharString index="19">
            rmoveto
            -704 vlineto
            -389 278 -182 316 367 218 226 354 4 vhcurveto
            7 651 2 121 18 27 130 17 rlinecurve
            76 -435 -75 vlineto
            142 -18 18 -28 2 158 callsubr
            -17 20 -20 -85 vvcurveto
            endchar
          </CharString>
          <CharString index="20">
            rmoveto
            -32 callsubr
            56 -26 callgsubr
            136 -115 201 165 119 78 103 54 vhcurveto
            -171 vlineto
            return
          </CharString>
          <CharString index="21">
            1142 rmoveto
            103 callgsubr
            return
          </CharString>
          <CharString index="22">
            527 75 vlineto
            -103 14 -14 15 64 vvcurveto
            return
          </CharString>
          <CharString index="23">
            63 callsubr
            endchar
          </CharString>
          <CharString index="24">
            rmoveto
            1038 79 callsubr
            return
          </CharString>
          <CharString index="25">
            542 75 vlineto
            -114 15 -18 17 67 vvcurveto
            return
          </CharString>
          <CharString index="26">
            1551 rmoveto
            211 145 return
          </CharString>
          <CharString index="27">
            rmoveto
            -70 -56 -51 -70 -69 56 -52 70 70 return
          </CharString>
          <CharString index="28">
            -75 hlineto
            138 -18 19 -21 -89 vvcurveto
            return
          </CharString>
          <CharString index="29">
            rmoveto
            322 -783 -80 -142 -117 -184 -80 -110 rlinecurve
            -5 238 vlineto
            161 450 100 242 212 519 58 142 23 19 93 16 rlinecurve
            76 -380 -76 vlineto
            125 -13 18 -17 callgsubr
            endchar
          </CharString>
          <CharString index="30">
            57 34 72 42 96 hhcurveto
            129 77 -76 -145 hvcurveto
            -491 -28 callsubr
            65 callsubr
            528 vlineto
            210 -140 113 -206 return
          </CharString>
          <CharString index="31">
            rmoveto
            -70 -57 -51 -70 -69 57 -52 70 70 -99 callgsubr
          </CharString>
          <CharString index="32">
            -36 callsubr
            -290 vlineto
            -142 -291 rlineto
            return
          </CharString>
          <CharString index="33">
            1038 34 callgsubr
            return
          </CharString>
          <CharString index="34">
            rmoveto
            326 -543 rlineto
            -416 vlineto
            -98 -22 -26 -147 -18 vhcurveto
            -75 639 -103 callgsubr
            430 vlineto
            311 514 98 -59 callgsubr
            148 -18 8 -37 -82 -151 rrcurveto
            -236 -427 -254 -81 callgsubr
            108 -17 33 -28 90 -148 rrcurveto
            endchar
          </CharString>
          <CharString index="35">
            468 1494 -107 callsubr
            -65 callsubr
            return
          </CharString>
          <CharString index="36">
            1849 rmoveto
            -210 -145 -209 145 -95 0 return
          </CharString>
          <CharString index="37">
            51 -68 -67 -54 -51 -68 -67 54 -51 67 hvcurveto
            return
          </CharString>
          <CharString index="38">
            1576 rmoveto
            71 56 52 return
          </CharString>
          <CharString index="39">
            -462 -642 462 vlineto
            85 130 callsubr
            -102 callsubr
            return
          </CharString>
          <CharString index="40">
            14 422 rlineto
            -71 hlineto
            -58 -275 -86 -39 -291 -10 rrcurveto
            -299 -11 792 1286 rlineto
            71 -1102 vlineto
            -13 -378 rlineto
            return
          </CharString>
          <CharString index="41">
            69 69 -56 51 -71 -70 -56 -51 -69 -69 56 -52 70 hvcurveto
            return
          </CharString>
          <CharString index="42">
            -16 9 -15 -58 vvcurveto
            -1094 24 callsubr
            return
          </CharString>
          <CharString index="43">
            1239 rmoveto
            626 156 -626 hlineto
            return
          </CharString>
          <CharString index="44">
            -66 vvcurveto
            -656 24 callsubr
            return
          </CharString>
          <CharString index="45">
            -75 vlineto
            138 -18 19 -21 -89 vvcurveto
            return
          </CharString>
          <CharString index="46">
            1528 rmoveto
            -228 -195 return
          </CharString>
          <CharString index="47">
            613 vlineto
            -77 callsubr
            return
          </CharString>
          <CharString index="48">
            1142 rmoveto
            229 194 225 84 callsubr
            return
          </CharString>
          <CharString index="49">
            rmoveto
            -406 -50 0 -69 67 -18 rlineto
            56 -93 callsubr
            -85 callsubr
            613 vlineto
            return
          </CharString>
          <CharString index="50">
            -233 137 -82 157 114 116 48 51 49 vhcurveto
            105 callgsubr
            return
          </CharString>
          <CharString index="51">
            rmoveto
            77 62 54 74 73 -62 55 -77 -76 -62 -55 -73 -74 62 -54 76 hvcurveto
            endchar
          </CharString>
          <CharString index="52">
            -36 callsubr
            -290 vlineto
            -141 -291 rlineto
            return
          </CharString>
          <CharString index="53">
            45 rlineto
            276 182 84 139 307 vvcurveto
            endchar
          </CharString>
          <CharString index="54">
            1607 rmoveto
            564 139 -564 hlineto
            return
          </CharString>
          <CharString index="55">
            291 -183 0 -211 -291 rlineto
            return
          </CharString>
          <CharString index="56">
            349 hmoveto
            67 54 51 67 68 -54 return
          </CharString>
          <CharString index="57">
            59 46 43 57 59 -46 43 -59 hvcurveto
            return
          </CharString>
          <CharString index="58">
            rmoveto
            582 141 -582 hlineto
            endchar
          </CharString>
          <CharString index="59">
            209 -145 94 0 -211 return
          </CharString>
          <CharString index="60">
            1511 rmoveto
            164 vlineto
            return
          </CharString>
          <CharString index="61">
            203 -83 callsubr
            return
          </CharString>
          <CharString index="62">
            rmoveto
            -163 123 -106 157 -32 vhcurveto
            -166 -36 -100 -80 -1 -114 rrcurveto
            -114 109 -72 153 -5 vhcurveto
            -214 -23 -102 -75 -104 vvcurveto
            -146 188 -101 321 318 229 149 216 183 -143 107 -261 vhcurveto
            -212 hlineto
            -103 -54 32 59 47 36 37 73 20 hvcurveto
            -7 47 36 -3 37 hhcurveto
            250 208 123 210 97 -52 88 -80 41 hvcurveto
            261 -16 0 111 -358 -22 rlineto
            26 -62 -84 17 -92 hhcurveto
            -264 -198 -139 -205 hvcurveto
            276 12 rmoveto
            142 70 97 115 120 74 -97 -152 -143 -75 -97 -109 -113 -82 94 156 vhcurveto
            -72 -905 rmoveto
            81 54 58 99 14 vhcurveto
            203 hlineto
            149 63 -54 -89 -111 -116 -76 -181 -172 -99 73 104 hvcurveto
            endchar
          </CharString>
          <CharString index="63">
            -279 -11 rrcurveto
            -246 -9 0 608 241 -2 93 -2 26 -38 30 -162 rlinecurve
            66 495 -66 hlineto
            -33 -164 -25 -36 -91 -2 rrcurveto
            -241 -2 0 575 228 -8 248 -10 73 -50 53 -223 rlinecurve
            71 hlineto
            return
          </CharString>
          <CharString index="64">
            -286 -180 292 374 372 170 250 294 -15 callgsubr
          </CharString>
          <CharString index="65">
            rmoveto
            76 62 54 74 73 -62 55 -76 -77 -62 -55 -73 -74 62 -54 77 hvcurveto
            endchar
          </CharString>
          <CharString index="66">
            -218 339 -165 0 -218 -339 rlineto
            endchar
          </CharString>
          <CharString index="67">
            -1119 -79 callsubr
            -102 callsubr
            return
          </CharString>
          <CharString index="68">
            212 -291 182 0 212 291 rlineto
            return
          </CharString>
          <CharString index="69">
            vlineto
            15 422 rlineto
            -71 hlineto
            -57 -273 -69 -42 return
          </CharString>
          <CharString index="70">
            -267 186 -51 0 -265 -186 rlineto
            return
          </CharString>
          <CharString index="71">
            1551 rmoveto
            338 283 rlineto
            8 return
          </CharString>
          <CharString index="72">
            500 1444 -23 callsubr
            return
          </CharString>
          <CharString index="73">
            -35 -138 -159 -138 vhcurveto
            43 -62 return
          </CharString>
          <CharString index="74">
            rmoveto
            583 141 -583 hlineto
            endchar
          </CharString>
          <CharString index="75">
            -411 -50 0 -69 67 -18 rlineto
            return
          </CharString>
          <CharString index="76">
            -178 0 -234 -377 rlineto
            return
          </CharString>
          <CharString index="77">
            -177 0 -234 -377 rlineto
            return
          </CharString>
          <CharString index="78">
            -166 -121 -75 -102 -55 vhcurveto
            return
          </CharString>
          <CharString index="79">
            vlineto
            -64 -14 -15 -102 -14 vhcurveto
            -75 return
          </CharString>
          <CharString index="80">
            627 -103 callgsubr
            return
          </CharString>
          <CharString index="81">
            rmoveto
            273 -765 161 0 257 705 249 -705 160 0 275 751 52 144 25 18 90 16 rlinecurve
            76 -357 -76 vlineto
            108 -11 16 -28 -41 -127 rrcurveto
            -158 -474 -152 475 -40 125 15 30 101 10 rlinecurve
            76 -507 -76 vlineto
            100 -11 17 -29 -41 -124 rrcurveto
            -161 -476 -151 475 -39 126 14 27 108 12 rlinecurve
            76 -537 -76 vlineto
            89 -19 31 -22 43 -123 rrcurveto
            endchar
          </CharString>
          <CharString index="82">
            rmoveto
            -459 339 -291 434 209 205 55 81 117 vhcurveto
            390 vlineto
            89 17 19 135 14 vhcurveto
            75 -586 -75 vlineto
            148 -15 17 -18 -88 vvcurveto
            -360 vlineto
            -38 -51 -84 -23 -101 hhcurveto
            -286 -179 291 375 372 169 250 296 206 132 -116 -234 56 hvcurveto
            71 hlineto
            -11 351 rlineto
            61 -86 -170 44 -221 hhcurveto
            -439 -337 -276 -474 hvcurveto
            endchar
          </CharString>
          <CharString index="83">
            -425 1169 -220 0 -421 -1149 -64 -176 -27 -29 -120 -17 rlinecurve
            -75 451 75 vlineto
            -151 21 -20 34 56 163 rrcurveto
            66 195 485 0 72 -207 52 -152 -22 -34 -146 -20 rlinecurve
            -75 return
          </CharString>
          <CharString index="84">
            rmoveto
            -458 -75 hlineto
            127 -20 22 -28 -106 vvcurveto
            -7 -972 -1 -122 -18 -27 -134 -19 rlinecurve
            -75 438 75 vlineto
            -139 17 -19 27 -2 126 rrcurveto
            -18 957 788 -1202 271 0 9 1201 return
          </CharString>
          <CharString index="85">
            1379 1321 1444 rmoveto
            -1262 hlineto
            49 callsubr
            134 callsubr
            639 -103 callgsubr
            -94 callgsubr
            return
          </CharString>
          <CharString index="86">
            rmoveto
            55 44 36 50 49 -44 37 -55 hvcurveto
            -11 hlineto
            -56 -44 -37 -49 -50 44 -36 56 hvcurveto
            339 hmoveto
            66 callsubr
            return
          </CharString>
          <CharString index="87">
            rmoveto
            -466 345 -285 431 200 191 54 63 85 vhcurveto
            12 352 rlineto
            -39 callgsubr
            return
          </CharString>
          <CharString index="88">
            rmoveto
            77 61 54 74 73 -61 55 -77 -77 -61 -55 -73 -74 61 -54 77 hvcurveto
            endchar
          </CharString>
          <CharString index="89">
            15 453 rlineto
            -71 hlineto
            -67 -296 -86 -54 -235 -9 return
          </CharString>
          <CharString index="90">
            10 callsubr
            -67 -60 -82 -82 67 -60 82 hvcurveto
            return
          </CharString>
          <CharString index="91">
            1677 518 197 60 callsubr
            return
          </CharString>
          <CharString index="92">
            rmoveto
            212 174 210 -174 90 0 return
          </CharString>
          <CharString index="93">
            1579 rmoveto
            68 54 51 67 68 -54 return
          </CharString>
          <CharString index="94">
            1198 rmoveto
            86 callsubr
            return
          </CharString>
          <CharString index="95">
            464 1017 -58 callsubr
            return
          </CharString>
          <CharString index="96">
            2 122 17 17 callgsubr
            return
          </CharString>
          <CharString index="97">
            23 callsubr
            -90 69 -127 return
          </CharString>
          <CharString index="98">
            1142 rmoveto
            228 194 return
          </CharString>
          <CharString index="99">
            1142 133 callsubr
            return
          </CharString>
          <CharString index="100">
            -291 vlineto
            -141 -291 rlineto
            return
          </CharString>
          <CharString index="101">
            208 -145 95 0 -212 return
          </CharString>
          <CharString index="102">
            vlineto
            -66 -17 -18 -115 -14 vhcurveto
            return
          </CharString>
          <CharString index="103">
            1693 95 721 rmoveto
            return
          </CharString>
          <CharString index="104">
            -584 -182 rlineto
            -76 vlineto
            return
          </CharString>
          <CharString index="105">
            766 172 293 rmoveto
            return
          </CharString>
          <CharString index="106">
            -57 -77 -76 62 -57 78 hvcurveto
            return
          </CharString>
          <CharString index="107">
            -76 vlineto
            114 -14 18 -18 return
          </CharString>
          <CharString index="108">
            rmoveto
            370 -1169 215 0 342 1099 330 -1099 218 0 366 1150 55 176 32 28 119 17 rlinecurve
            75 -447 -75 vlineto
            148 -21 13 -31 -46 -162 rrcurveto
            -251 -884 -258 897 -44 153 11 28 143 20 rlinecurve
            75 -604 -75 vlineto
            145 -21 13 -27 -43 -154 rrcurveto
            -253 -896 -260 895 -43 151 14 32 147 20 rlinecurve
            75 -631 -75 vlineto
            112 -16 36 -27 51 -159 rrcurveto
            endchar
          </CharString>
          <CharString index="109">
            rmoveto
            501 vlineto
            140 -1 416 -697 rlineto
            376 71 hlineto
            -73 23 -45 45 -131 217 rrcurveto
            -330 556 209 226 153 165 61 42 126 24 rlinecurve
            75 -490 -75 vlineto
            147 -15 13 -41 -104 -126 -330 -399 rcurveline
            -138 459 hlineto
            85 19 19 128 17 vhcurveto
            76 -605 -62 callsubr
            -102 callsubr
            605 75 vlineto
            -128 18 -19 19 85 vvcurveto
            endchar
          </CharString>
          <CharString index="110">
            -186 -7 rcurveline
            1145 vlineto
            95 21 24 -54 callgsubr
            -102 callsubr
            vlineto
            return
          </CharString>
          <CharString index="111">
            rmoveto
            -407 58 callsubr
            -618 -5 callsubr
            -75 142 callsubr
            166 callsubr
            endchar
          </CharString>
          <CharString index="112">
            rmoveto
            176 145 64 93 74 hvcurveto
            152 callsubr
            -318 228 -200 289 vhcurveto
            endchar
          </CharString>
          <CharString index="113">
            1579 rmoveto
            67 54 51 67 68 -54 67 callsubr
            348 hmoveto
            68 return
          </CharString>
          <CharString index="114">
            -226 195 -97 0 234 -377 178 0 234 377 rlineto
            return
          </CharString>
          <CharString index="115">
            1209 1148 hmoveto
            -18 callsubr
            3 callsubr
            return
          </CharString>
          <CharString index="116">
            rmoveto
            103 72 59 118 -1 hvcurveto
            -85 hlineto
            -45 29 callsubr
            return
          </CharString>
          <CharString index="117">
            1189 rmoveto
            83 66 60 82 82 -66 60 -83 -82 return
          </CharString>
          <CharString index="118">
            1182 rmoveto
            86 70 64 85 86 -70 63 -86 -87 return
          </CharString>
          <CharString index="119">
            1294 443 1017 -87 callsubr
            return
          </CharString>
          <CharString index="120">
            1470 rmoveto
            584 127 -584 hlineto
            return
          </CharString>
          <CharString index="121">
            -11 hlineto
            -58 -46 -43 -59 -57 46 -43 58 hvcurveto
            return
          </CharString>
          <CharString index="122">
            1515 745 103 callsubr
            return
          </CharString>
          <CharString index="123">
            291 -182 0 -212 -291 rlineto
            return
          </CharString>
          <CharString index="124">
            75 vlineto
            -147 18 -22 26 98 vvcurveto
            return
          </CharString>
          <CharString index="125">
            71 hlineto
            49 47 callsubr
            endchar
          </CharString>
          <CharString index="126">
            57 52 69 70 -56 51 -71 hvcurveto
            endchar
          </CharString>
          <CharString index="127">
            -56 -43 -37 -49 -50 43 -36 56 hvcurveto
            return
          </CharString>
          <CharString index="128">
            -67 vvcurveto
            -655 24 callsubr
            return
          </CharString>
          <CharString index="129">
            rmoveto
            291 104 292 -104 0 79 return
          </CharString>
          <CharString index="130">
            rmoveto
            151 101 72 113 112 return
          </CharString>
          <CharString index="131">
            vlineto
            -67 -18 -17 -114 -15 vhcurveto
            -75 return
          </CharString>
          <CharString index="132">
            -168 -122 -77 -103 -55 vhcurveto
            return
          </CharString>
          <CharString index="133">
            86 496 -91 callsubr
            return
          </CharString>
          <CharString index="134">
            14 callsubr
            357 hmoveto
            return
          </CharString>
          <CharString index="135">
            -69 -63 -86 -85 69 -64 87 hvcurveto
            return
          </CharString>
          <CharString index="136">
            -1 -27 -19 -44 hhcurveto
            -27 -28 return
          </CharString>
          <CharString index="137">
            -17 9 90 callsubr
            return
          </CharString>
          <CharString index="138">
            rmoveto
            157 126 69 90 53 hvcurveto
            -98 23 92 -55 113 hhcurveto
            81 68 24 27 38 hvcurveto
            71 vlineto
            -5 -12 -17 -3 -19 hhcurveto
            -57 -45 34 85 hvcurveto
            472 vlineto
            233 -161 103 -261 -257 -183 -106 -140 -74 59 -52 76 79 58 55 73 49 -27 42 -39 21 vhcurveto
            17 42 49 10 54 hhcurveto
            146 92 -65 -177 hvcurveto
            -83 vlineto
            -218 -46 rlineto
            -294 -63 -113 -100 -157 vvcurveto
            -147 122 -104 175 vhcurveto
            -21 297 rmoveto
            106 64 64 180 41 vhcurveto
            105 22 rlineto
            -306 vlineto
            -56 -36 -66 -34 -81 hhcurveto
            -95 -71 59 104 hvcurveto
            return
          </CharString>
          <CharString index="139">
            rmoveto
            -121 -175 -40 -31 -120 -16 rrcurveto
            -75 461 75 vlineto
            -151 21 -5 35 93 147 rrcurveto
            215 337 234 -358 81 -124 -7 -36 -148 -22 rlinecurve
            -75 650 75 vlineto
            -103 24 -44 30 -77 120 rrcurveto
            -337 515 271 390 116 168 41 31 120 16 rlinecurve
            75 -460 -75 vlineto
            151 -21 5 -35 -92 -146 rrcurveto
            -204 -323 -224 343 -82 128 6 32 149 22 rlinecurve
            75 -646 -75 vlineto
            103 -24 40 -30 78 -120 326 -499 rcurveline
            endchar
          </CharString>
          <CharString index="140">
            rmoveto
            -386 279 -181 315 361 225 222 353 3 vhcurveto
            7 844 rlineto
            -2 16 16 -1 15 hhcurveto
            155 87 66 112 94 -66 91 -91 49 hvcurveto
            -75 hlineto
            21 -27 16 -56 -55 vvcurveto
            -120 -1 -80 -98 -189 hhcurveto
            -115 -75 hlineto
            152 -22 17 -21 -107 vvcurveto
            5 -659 rlineto
            -281 2 -147 -153 -236 hhcurveto
            -226 -165 141 288 hvcurveto
            679 vlineto
            93 21 20 148 22 vhcurveto
            75 -623 -75 vlineto
            132 -21 21 -21 -93 vvcurveto
            endchar
          </CharString>
          <CharString index="141">
            rmoveto
            -488 -75 hlineto
            127 -18 24 -29 -3 -106 rrcurveto
            -28 -976 -5 -121 -17 -26 -133 -18 rlinecurve
            -75 432 75 vlineto
            -136 19 -17 26 1 123 rrcurveto
            3 993 457 -1236 155 0 89 282 346 954 25 -1037 2 -88 -20 -20 -130 -16 rlinecurve
            -75 603 75 vlineto
            -136 17 -18 20 -3 91 rrcurveto
            -27 1038 -2 90 22 21 135 17 rlinecurve
            75 vlineto
            -495 1 -365 -1098 rlineto
            endchar
          </CharString>
          <CharString index="142">
            303 -156 235 -226 120 vhcurveto
            -6 30 32 -4 33 hhcurveto
            173 120 61 129 hvcurveto
            1 97 -71 91 -95 50 rrcurveto
            -74 hlineto
            20 -27 16 -59 -52 vvcurveto
            -125 -75 -89 -151 vhcurveto
            -96 -102 24 -131 185 callsubr
            41 callsubr
            endchar
          </CharString>
          <CharString index="143">
            rmoveto
            282 -234 145 -392 vhcurveto
            -617 -79 callsubr
            -102 callsubr
            -27 callsubr
            345 159 vlineto
            363 263 157 298 hvcurveto
            -320 -16 rmoveto
            -214 -127 -124 -256 -11 vhcurveto
            -82 -3 0 708 82 -3 rlineto
            261 -11 122 -132 -210 vvcurveto
            endchar
          </CharString>
          <CharString index="144">
            rmoveto
            -7 -316 rlineto
            71 hlineto
            47 179 48 37 171 8 rrcurveto
            190 6 -536 -44 callgsubr
            76 callgsubr
            endchar
          </CharString>
          <CharString index="145">
            1283 86 490 -107 callgsubr
            -67 callgsubr
            return
          </CharString>
          <CharString index="146">
            638 75 vlineto
            -116 17 -31 29 -57 156 rrcurveto
            -842 306 rmoveto
            208 611 211 -611 rlineto
            return
          </CharString>
          <CharString index="147">
            577 vlineto
            281 -8 0 112 -281 -10 rlineto
            226 -51 vlineto
            -353 -267 rlineto
            -61 127 vlineto
            return
          </CharString>
          <CharString index="148">
            265 163 -289 -371 -356 -119 -272 -289 -266 -162 290 370 vhcurveto
            return
          </CharString>
          <CharString index="149">
            179 146 63 95 76 vhcurveto
            -91 callgsubr
            -221 -93 callgsubr
            225 callsubr
            return
          </CharString>
          <CharString index="150">
            -8 14 59 vvcurveto
            806 vlineto
            -32 callsubr
            56 -17 9 -14 -58 vvcurveto
            69 callgsubr
            return
          </CharString>
          <CharString index="151">
            7 33 -38 callgsubr
            -56 -52 16 21 -33 vhcurveto
            -70 vlineto
            -36 38 76 -29 88 hhcurveto
            endchar
          </CharString>
          <CharString index="152">
            -36 -121 hhcurveto
            -120 -90 37 55 -4 hvcurveto
            -85 hlineto
            -135 -8 125 -84 182 hhcurveto
            return
          </CharString>
          <CharString index="153">
            rmoveto
            -416 -50 0 -69 68 -18 rlineto
            60 -26 callgsubr
            205 callsubr
            endchar
          </CharString>
          <CharString index="154">
            222 61 49 281 10 rrcurveto
            313 10 -791 -1286 rlineto
            -71 vlineto
            return
          </CharString>
          <CharString index="155">
            1186 rmoveto
            106 83 83 215 -4 hvcurveto
            -87 hlineto
            -99 -3 -23 -34 return
          </CharString>
          <CharString index="156">
            -12 -378 rlineto
            70 hlineto
            45 230 72 46 253 12 52 3 rcurveline
            return
          </CharString>
          <CharString index="157">
            -459 348 -290 403 456 297 332 420 return
          </CharString>
          <CharString index="158">
            1160 rmoveto
            206 111 146 154 20 -1 21 return
          </CharString>
          <CharString index="159">
            1142 rmoveto
            95 hlineto
            -155 377 rlineto
            -302 -11 hlineto
            return
          </CharString>
          <CharString index="160">
            135 callsubr
            -71 -56 -51 -69 -69 56 -52 71 hvcurveto
            return
          </CharString>
          <CharString index="161">
            1519 rmoveto
            -255 -11 hlineto
            313 -366 rlineto
            return
          </CharString>
          <CharString index="162">
            -82 -216 4 hvcurveto
            86 hlineto
            99 3 24 34 44 hhcurveto
            return
          </CharString>
          <CharString index="163">
            1583 rmoveto
            185 102 128 134 18 return
          </CharString>
          <CharString index="164">
            197 147 150 254 250 -149 return
          </CharString>
          <CharString index="165">
            -50 0 -69 67 -18 rlineto
            56 -16 9 -15 -58 vvcurveto
            return
          </CharString>
          <CharString index="166">
            hvcurveto
            -83 hlineto
            -65 -4 -87 -43 -118 hhcurveto
            -117 return
          </CharString>
          <CharString index="167">
            rmoveto
            494 642 -494 182 callsubr
            return
          </CharString>
          <CharString index="168">
            1334 rmoveto
            -124 126 -83 162 return
          </CharString>
          <CharString index="169">
            656 vlineto
            66 16 17 116 15 vhcurveto
            76 return
          </CharString>
          <CharString index="170">
            614 75 vlineto
            -137 18 -19 21 89 vvcurveto
            return
          </CharString>
          <CharString index="171">
            605 75 vlineto
            -127 17 -20 20 85 vvcurveto
            return
          </CharString>
          <CharString index="172">
            527 75 vlineto
            -116 15 -16 17 67 vvcurveto
            return
          </CharString>
          <CharString index="173">
            56 43 36 50 49 -43 37 -56 hvcurveto
            -11 hlineto
            return
          </CharString>
          <CharString index="174">
            51 -67 -68 -54 -51 -68 -67 54 -51 68 hvcurveto
            return
          </CharString>
          <CharString index="175">
            35 hvcurveto
            31 -24 rlineto
            -39 54 47 -25 61 hhcurveto
            return
          </CharString>
          <CharString index="176">
            -10 hlineto
            -59 -46 -43 -59 -57 46 -43 59 hvcurveto
            return
          </CharString>
          <CharString index="177">
            vhcurveto
            334 17 rmoveto
            357 119 271 return
          </CharString>
          <CharString index="178">
            1551 rmoveto
            93 -19 callgsubr
            return
          </CharString>
          <CharString index="179">
            rmoveto
            103 72 59 118 hvcurveto
            -86 hlineto
            -45 return
          </CharString>
          <CharString index="180">
            -410 -50 0 -69 67 -18 rlineto
            56 return
          </CharString>
          <CharString index="181">
            75 vlineto
            -138 18 -19 21 89 vvcurveto
            return
          </CharString>
          <CharString index="182">
            -31 -41 hhcurveto
            -28 -24 13 23 -33 hvcurveto
            return
          </CharString>
          <CharString index="183">
            -70 vlineto
            -36 38 75 -29 89 hhcurveto
            endchar
          </CharString>
          <CharString index="184">
            -72 -58 -51 -69 -69 58 -51 72 hvcurveto
            return
          </CharString>
          <CharString index="185">
            vlineto
            89 19 21 138 18 vhcurveto
            75 return
          </CharString>
          <CharString index="186">
            vlineto
            89 19 21 137 18 vhcurveto
            75 return
          </CharString>
          <CharString index="187">
            vlineto
            -89 -19 -21 -138 -18 vhcurveto
            -75 return
          </CharString>
          <CharString index="188">
            -1164 -97 callsubr
            return
          </CharString>
          <CharString index="189">
            1830 94 callsubr
            return
          </CharString>
          <CharString index="190">
            -455 -297 -331 -420 return
          </CharString>
          <CharString index="191">
            -194 97 0 -234 377 return
          </CharString>
          <CharString index="192">
            623 -22 -97 callsubr
            return
          </CharString>
          <CharString index="193">
            78 62 57 76 77 -62 57 -78 return
          </CharString>
          <CharString index="194">
            72 58 51 69 69 -58 51 -72 return
          </CharString>
          <CharString index="195">
            44 64 -4 hvcurveto
            -83 hlineto
            -158 return
          </CharString>
          <CharString index="196">
            18 -21 -89 vvcurveto
            -1038 vlineto
            -89 return
          </CharString>
          <CharString index="197">
            -14 -58 vvcurveto
            -640 vlineto
            -292 return
          </CharString>
          <CharString index="198">
            -31 -36 -28 hvcurveto
            -66 vlineto
            8 18 return
          </CharString>
          <CharString index="199">
            -76 vlineto
            102 -13 14 -16 -64 vvcurveto
            return
          </CharString>
          <CharString index="200">
            -91 69 -126 -84 -65 -31 -36 return
          </CharString>
          <CharString index="201">
            rmoveto
            599 109 -599 hlineto
            return
          </CharString>
          <CharString index="202">
            rmoveto
            309 246 167 276 210 -123 143 -267 87 hvcurveto
            -120 39 rlineto
            -166 55 -90 70 127 vvcurveto
            129 94 91 178 179 132 -111 -217 45 vhcurveto
            71 hlineto
            -11 330 rlineto
            57 -77 -152 47 -187 hhcurveto
            -335 -217 -167 -253 -206 137 -142 251 -80 hvcurveto
            120 -39 rlineto
            177 -58 81 -83 -131 vvcurveto
            -139 -109 -96 -170 -198 -168 118 237 -52 vhcurveto
            -71 hlineto
            12 -345 rlineto
            -65 95 180 -51 206 hhcurveto
            return
          </CharString>
          <CharString index="203">
            rmoveto
            -245 324 196 248 83 108 31 26 99 17 rlinecurve
            76 -391 -76 vlineto
            119 -14 12 -22 -67 -94 rrcurveto
            -141 -190 -143 189 -68 93 11 26 122 12 rlinecurve
            76 -538 -76 vlineto
            70 -15 31 -22 66 -88 rrcurveto
            245 -324 -188 -240 -90 -115 -33 -29 -107 -20 rlinecurve
            -75 400 75 vlineto
            -111 14 -18 24 71 101 rrcurveto
            135 187 143 -190 72 -99 -14 -24 -120 -13 rlinecurve
            -75 543 75 vlineto
            -73 16 -34 24 -68 90 rrcurveto
            endchar
          </CharString>
          <CharString index="204">
            rmoveto
            -164 120 -90 187 -53 vhcurveto
            87 -24 rlineto
            126 -36 51 -44 -80 vvcurveto
            -84 -74 -59 -124 -154 -119 95 158 -36 vhcurveto
            -71 hlineto
            9 -267 rlineto
            -50 80 141 -37 157 hhcurveto
            252 189 120 194 168 -106 94 -196 55 hvcurveto
            -87 24 rlineto
            -118 33 -65 40 81 vvcurveto
            82 73 52 118 133 98 -81 -143 33 vhcurveto
            71 hlineto
            -6 256 rlineto
            36 -61 -119 33 -154 hhcurveto
            -267 -168 -117 -192 hvcurveto
            return
          </CharString>
          <CharString index="205">
            rmoveto
            -91 -82 63 callgsubr
            -75 -6 -220 -71 vvcurveto
            -237 138 -156 264 266 206 206 376 286 -97 179 -146 -102 -64 -94 -122 30 vhcurveto
            148 -34 98 -151 -187 vvcurveto
            -204 -102 -107 -145 -144 -71 100 178 vhcurveto
            68 8 219 65 vvcurveto
            177 -77 84 -146 vhcurveto
            endchar
          </CharString>
          <CharString index="206">
            1689 844 -27 rmoveto
            412 338 338 412 412 -338 338 -412 -412 -337 -338 -412 -412 338 -338 411 hvcurveto
            68 vmoveto
            -369 -304 307 375 375 304 307 369 370 303 -307 -375 -375 -304 -307 -369 hvcurveto
            return
          </CharString>
          <CharString index="207">
            1554 183 1247 rmoveto
            -704 vlineto
            -389 278 -182 316 367 218 226 354 4 vhcurveto
            7 651 2 121 18 27 130 17 rlinecurve
            76 -435 -75 vlineto
            142 -18 18 -28 2 158 callsubr
            -17 20 -20 -85 vvcurveto
            return
          </CharString>
          <CharString index="208">
            rmoveto
            223 -183 123 -269 19 vhcurveto
            209 19 173 105 187 vvcurveto
            221 -209 126 -361 vhcurveto
            -647 -79 callsubr
            -102 callsubr
            207 callsubr
            endchar
          </CharString>
          <CharString index="209">
            rmoveto
            11 -714 rlineto
            -217 4 107 -95 169 hhcurveto
            119 107 51 70 54 hvcurveto
            73 vlineto
            -22 -32 -47 -15 -58 hhcurveto
            -100 -67 56 138 2 hvcurveto
            32 15 575 3 68 vhcurveto
            endchar
          </CharString>
          <CharString index="210">
            167 callsubr
            -332 -20 132 callsubr
            0 1270 104 callgsubr
            return
          </CharString>
          <CharString index="211">
            428 1445 rmoveto
            -87 hlineto
            -242 -120 0 -48 137 32 rlineto
            -505 vlineto
            -56 -24 -16 -106 -11 vhcurveto
            -53 452 53 vlineto
            -106 11 -23 16 56 vvcurveto
            return
          </CharString>
          <CharString index="212">
            -952 vlineto
            -330 -72 -148 -216 -143 vhcurveto
            33 -65 rlineto
            360 158 196 153 351 vvcurveto
            endchar
          </CharString>
          <CharString index="213">
            rmoveto
            178 121 99 158 -7 59 callsubr
            -88 88 callsubr
            -7 121 -99 178 hhcurveto
            endchar
          </CharString>
          <CharString index="214">
            339 hmoveto
            56 44 36 50 49 -44 37 -56 hvcurveto
            -10 hlineto
            -56 -44 -37 -49 -50 44 -36 56 hvcurveto
            endchar
          </CharString>
          <CharString index="215">
            1442 rmoveto
            101 70 69 138 -1 hvcurveto
            -83 hlineto
            -52 108 callgsubr
            17 -44 -43 12 return
          </CharString>
          <CharString index="216">
            1528 rmoveto
            -229 -195 -32 callgsubr
            178 0 234 377 rlineto
            return
          </CharString>
          <CharString index="217">
            rmoveto
            182 125 84 135 -8 hvcurveto
            -85 hlineto
            -56 -4 -89 45 callsubr
            endchar
          </CharString>
          <CharString index="218">
            292 104 292 -104 0 79 -267 186 -51 0 -266 -186 rlineto
            endchar
          </CharString>
          <CharString index="219">
            1186 rmoveto
            105 83 83 215 -4 hvcurveto
            -86 hlineto
            -99 -3 -24 -34 -44 hhcurveto
            return
          </CharString>
          <CharString index="220">
            102 72 113 112 -91 69 -127 -83 -65 -31 -36 -85 callgsubr
            return
          </CharString>
          <CharString index="221">
            1142 rmoveto
            359 366 rlineto
            11 -292 vlineto
            -161 -377 rlineto
            return
          </CharString>
          <CharString index="222">
            155 -187 -197 -147 -151 -254 -250 149 -154 return
          </CharString>
          <CharString index="223">
            132 122 66 121 121 -105 67 -126 hvcurveto
            -3 -4 0 return
          </CharString>
          <CharString index="224">
            89 73 74 89 91 -73 72 -89 -89 -73 -72 -91 -89 73 -74 89 hvcurveto
            return
          </CharString>
          <CharString index="225">
            -7 hlineto
            -99 -88 -74 -138 -137 -89 75 98 vhcurveto
            7 -86 vlineto
            return
          </CharString>
          <CharString index="226">
            415 652 rmoveto
            57 callsubr
            22 callgsubr
            return
          </CharString>
          <CharString index="227">
            77 63 57 76 77 -63 57 -77 -78 -62 -1 callsubr
            return
          </CharString>
          <CharString index="228">
            29 26 -14 -25 34 hvcurveto
            31 -24 rlineto
            -39 55 47 -25 61 hhcurveto
            return
          </CharString>
          <CharString index="229">
            -29 -26 14 26 -34 hvcurveto
            -31 23 rlineto
            39 -55 -46 25 -62 hhcurveto
            return
          </CharString>
          <CharString index="230">
            vlineto
            -3 -16 -1 -17 -18 vvcurveto
            -134 102 -128 185 vhcurveto
            return
          </CharString>
          <CharString index="231">
            1562 rmoveto
            101 80 76 202 -4 hvcurveto
            -85 hlineto
            -91 return
          </CharString>
          <CharString index="232">
            1511 rmoveto
            584 -94 0 76 -584 182 rlineto
            return
          </CharString>
          <CharString index="233">
            1198 rmoveto
            86 callgsubr
            57 callgsubr
            return
          </CharString>
          <CharString index="234">
            356 hmoveto
            -50 callsubr
            69 callsubr
            endchar
          </CharString>
          <CharString index="235">
            77 74 194 -4 hvcurveto
            -80 hlineto
            -89 -3 -22 -31 -41 hhcurveto
            return
          </CharString>
          <CharString index="236">
            46 93 83 87 49 -107 -233 -233 -45 -92 -84 hvcurveto
            return
          </CharString>
          <CharString index="237">
            20 19 127 17 vhcurveto
            76 -605 -62 callsubr
            return
          </CharString>
          <CharString index="238">
            7 12 -40 hvcurveto
            -33 11 rlineto
            14 -46 235 callsubr
            return
          </CharString>
          <CharString index="239">
            rmoveto
            -386 -214 -237 -342 -11 vhcurveto
            -109 -4 return
          </CharString>
          <CharString index="240">
            rmoveto
            214 366 rlineto
            11 -251 vlineto
            -58 -377 rlineto
            return
          </CharString>
          <CharString index="241">
            -1140 vlineto
            -98 -21 -26 -148 -18 vhcurveto
            -75 return
          </CharString>
          <CharString index="242">
            1576 rmoveto
            70 56 52 69 69 -56 51 -70 return
          </CharString>
          <CharString index="243">
            -159 hlineto
            -381 -511 rlineto
            -103 369 vlineto
            return
          </CharString>
          <CharString index="244">
            -20 -20 vvcurveto
            -154 112 -146 205 vhcurveto
            return
          </CharString>
          <CharString index="245">
            -77 -63 -57 -77 -76 63 -57 77 hvcurveto
            466 hmoveto
            return
          </CharString>
          <CharString index="246">
            1842 rmoveto
            -252 4 callgsubr
            return
          </CharString>
          <CharString index="247">
            1214 869 hmoveto
            151 callsubr
            return
          </CharString>
          <CharString index="248">
            605 75 vlineto
            -128 17 -19 20 85 vvcurveto
            return
          </CharString>
          <CharString index="249">
            557 75 vlineto
            -129 16 -18 16 78 vvcurveto
            return
          </CharString>
          <CharString index="250">
            50 -67 -68 -54 -50 -68 -67 54 -51 68 hvcurveto
            return
          </CharString>
          <CharString index="251">
            50 -68 -67 -54 -50 -68 -67 54 -51 67 hvcurveto
            return
          </CharString>
          <CharString index="252">
            -10 hlineto
            -59 -46 -43 -58 -58 46 -43 59 hvcurveto
            return
          </CharString>
          <CharString index="253">
            rmoveto
            183 143 96 181 35 hvcurveto
            -173 77 181 -104 190 hhcurveto
            176 144 65 92 73 hvcurveto
            75 vlineto
            -52 -55 -93 -34 -97 hhcurveto
            -218 -149 151 248 -20 hvcurveto
            645 hlineto
            2 20 2 28 27 vvcurveto
            259 -159 168 -270 -132 -116 -51 -85 -73 vhcurveto
            91 -56 -116 45 -157 hhcurveto
            -241 -169 -107 -129 -73 57 -54 76 81 60 57 73 45 -24 38 -36 21 hvcurveto
            16 39 47 9 51 hhcurveto
            148 94 -81 -180 hvcurveto
            -63 vlineto
            -207 -37 rlineto
            -293 -51 -126 -111 -163 vvcurveto
            -161 127 -96 176 vhcurveto
            785 946 rmoveto
            123 59 -106 -178 hvcurveto
            -10 0 -10 -8 vvcurveto
            -399 -2 rlineto
            209 8 86 105 123 hhcurveto
            -661 -811 rmoveto
            -94 -61 60 104 108 66 72 188 37 hvcurveto
            100 19 rlineto
            -152 vlineto
            -174 -92 -74 -107 vhcurveto
            endchar
          </CharString>
          <CharString index="254">
            rmoveto
            -1034 hlineto
            -575 -1147 -88 -178 -42 -29 -115 -15 rlinecurve
            -75 458 75 vlineto
            -138 20 -21 41 77 162 rrcurveto
            137 287 452 0 4 -388 rlineto
            -86 -19 -19 -129 -17 vhcurveto
            -75 1085 vlineto
            12 422 rlineto
            -71 hlineto
            -53 -273 -66 -40 -271 -13 rrcurveto
            -205 -9 -6 608 200 -2 92 -2 26 -38 30 -162 rlinecurve
            67 hlineto
            -5 495 rlineto
            -66 hlineto
            -31 -164 -24 -36 -91 -2 rrcurveto
            -199 -2 -6 575 187 -8 245 -12 71 -48 55 -223 rlinecurve
            71 hlineto
            -984 290 rmoveto
            73 hlineto
            7 -675 rlineto
            -404 hlineto
            endchar
          </CharString>
          <CharString index="255">
            1444 518 197 rmoveto
            501 vlineto
            140 -1 416 -697 rlineto
            376 71 hlineto
            -73 23 -45 45 -131 217 rrcurveto
            -330 556 209 226 153 165 61 42 126 24 rlinecurve
            75 -490 -75 vlineto
            147 -15 13 -41 -104 -126 -330 -399 rcurveline
            -138 459 hlineto
            85 19 19 128 17 vhcurveto
            76 -605 -62 callsubr
            -102 callsubr
            605 75 vlineto
            -128 18 -19 19 85 vvcurveto
            return
          </CharString>
          <CharString index="256">
            rmoveto
            321 -186 191 -225 -152 -128 -76 -110 -52 vhcurveto
            178 vlineto
            -406 58 callsubr
            -1078 -5 callsubr
            -75 558 75 vlineto
            -130 16 -18 16 78 vvcurveto
            365 vlineto
            -64 51 102 -48 115 hhcurveto
            260 211 208 327 hvcurveto
            -288 -24 rmoveto
            -248 -108 -149 -157 -88 -70 41 53 -28 vhcurveto
            590 vlineto
            65 35 69 39 88 hhcurveto
            155 104 -147 -244 hvcurveto
            endchar
          </CharString>
          <CharString index="257">
            rmoveto
            240 -195 152 -397 vhcurveto
            -632 32 callgsubr
            605 75 vlineto
            -127 18 -20 19 85 vvcurveto
            440 200 vlineto
            327 -637 rlineto
            354 71 hlineto
            -60 17 -43 37 -112 210 rrcurveto
            -189 369 175 48 115 126 -1 174 rlinecurve
            -305 -20 rmoveto
            -195 -129 -103 -214 -7 vhcurveto
            -118 -4 0 634 99 -3 rlineto
            247 -9 115 -122 -191 vvcurveto
            return
          </CharString>
          <CharString index="258">
            350 71 hlineto
            -66 18 -47 38 -88 158 rrcurveto
            -229 394 63 57 163 145 53 28 112 19 rlinecurve
            76 -451 -76 vlineto
            130 -18 10 -35 -96 -97 -190 -199 rcurveline
            -115 915 hlineto
            73 callsubr
            -65 callsubr
            -85 callsubr
            322 vlineto
            118 -1 rlineto
            return
          </CharString>
          <CharString index="259">
            76 vlineto
            -52 -57 -95 -34 -98 hhcurveto
            -214 -159 157 265 229 126 143 177 54 45 -10 -20 36 hvcurveto
            -54 -15 -39 -51 -62 vvcurveto
            -75 59 -58 77 76 61 57 84 139 -125 117 -242 -298 -242 -206 -323 return
          </CharString>
          <CharString index="260">
            rmoveto
            100 71 69 139 -1 hvcurveto
            -84 hlineto
            -53 -26 -22 -43 -27 -28 8 14 -38 vhcurveto
            -33 12 rlineto
            18 -43 -44 11 -48 hhcurveto
            -99 -72 -70 -138 1 hvcurveto
            84 hlineto
            53 26 22 43 27 28 -8 -14 38 vhcurveto
            33 -12 rlineto
            -17 43 44 -12 48 hhcurveto
            endchar
          </CharString>
          <CharString index="261">
            rmoveto
            101 70 69 139 -1 hvcurveto
            -83 hlineto
            -53 108 callgsubr
            18 -44 -43 11 -83 callgsubr
            -14 38 vhcurveto
            33 -12 rlineto
            -17 44 43 -12 48 hhcurveto
            -126 -1169 -97 callsubr
            -100 callsubr
            -96 callsubr
          </CharString>
          <CharString index="262">
            -9 50 hhcurveto
            -424 -287 rmoveto
            299 88 71 callgsubr
            return
          </CharString>
          <CharString index="263">
            129 75 110 52 92 callgsubr
            15 58 vvcurveto
            1282 vlineto
            -411 -49 0 -69 67 -18 rlineto
            56 -16 9 -15 -58 vvcurveto
            -354 vlineto
            65 -52 -101 46 -115 hhcurveto
            -261 -209 -206 -329 hvcurveto
            return
          </CharString>
          <CharString index="264">
            928 465 1017 rmoveto
            -407 58 callsubr
            -618 -5 callsubr
            -75 142 callsubr
            166 callsubr
            return
          </CharString>
          <CharString index="265">
            -123 6 -627 rcurveline
            -293 3 -151 -154 -237 hhcurveto
            -223 -164 144 289 hvcurveto
            682 vlineto
            89 18 21 139 18 vhcurveto
            75 -606 -75 vlineto
            128 return
          </CharString>
          <CharString index="266">
            -310 227 -209 310 hvcurveto
            12 101 rmoveto
            -151 -103 167 267 255 87 156 155 150 103 -167 -266 -256 -87 -156 -154 hvcurveto
            return
          </CharString>
          <CharString index="267">
            -31 -41 hhcurveto
            -28 -24 13 23 -32 hvcurveto
            -29 21 rlineto
            35 -50 -43 23 -58 78 callgsubr
            return
          </CharString>
          <CharString index="268">
            1888 rmoveto
            -102 -23 callgsubr
            17 52 hhcurveto
            65 39 -28 -44 -46 -41 -41 -87 -56 hvcurveto
            80 hlineto
            160 61 58 58 73 vvcurveto
            79 -74 56 -111 vhcurveto
            return
          </CharString>
          <CharString index="269">
            rmoveto
            -7 -316 rlineto
            70 hlineto
            48 179 48 37 171 8 rrcurveto
            189 6 -535 -44 callgsubr
            -72 hlineto
            -41 -198 -58 -40 -154 -6 rrcurveto
            return
          </CharString>
          <CharString index="270">
            rmoveto
            164 39 152 129 190 vvcurveto
            128 -69 89 -107 -110 -61 -92 -112 vhcurveto
            92 -6 64 -55 -81 vvcurveto
            -79 -65 -57 -85 -25 vhcurveto
            endchar
          </CharString>
          <CharString index="271">
            51 -652 rmoveto
            143 hlineto
            894 1444 rlineto
            -143 hlineto
            -937 -720 179 callsubr
            1123 -740 rmoveto
            28 callgsubr
            return
          </CharString>
          <CharString index="272">
            7 12 -39 hvcurveto
            -34 11 rlineto
            14 -49 callgsubr
            86 hlineto
            45 27 19 44 27 28 -7 -12 40 vhcurveto
            33 -10 rlineto
            -15 46 43 -10 50 hhcurveto
            endchar
          </CharString>
          <CharString index="273">
            528 vlineto
            49 48 115 34 107 hhcurveto
            51 50 -7 -9 26 hvcurveto
            13 21 9 38 39 vvcurveto
            77 -37 66 -89 -99 -90 -80 -174 -108 vhcurveto
            return
          </CharString>
          <CharString index="274">
            rmoveto
            448 -349 251 -496 vhcurveto
            -610 -79 callsubr
            -102 callsubr
            620 vlineto
            453 382 281 464 hvcurveto
            return
          </CharString>
          <CharString index="275">
            124 callsubr
            13 callgsubr
            86 hlineto
            91 3 22 31 41 hhcurveto
            29 23 -13 -23 33 hvcurveto
            30 -21 rlineto
            -37 52 44 -22 59 hhcurveto
            return
          </CharString>
          <CharString index="276">
            250 109 146 156 88 71 -41 -52 27 vhcurveto
            -590 vlineto
            -65 -35 -69 -39 -89 hhcurveto
            -153 -105 144 247 hvcurveto
            return
          </CharString>
          <CharString index="277">
            56 32 67 43 94 hhcurveto
            123 72 -76 -148 hvcurveto
            -488 -28 callsubr
            204 callsubr
            endchar
          </CharString>
          <CharString index="278">
            72 45 -32 -52 -55 -45 -47 -98 -65 hvcurveto
            92 hlineto
            182 71 67 67 87 vvcurveto
            94 -85 65 -126 vhcurveto
            return
          </CharString>
          <CharString index="279">
            rmoveto
            -71 -56 -51 -70 -69 56 -52 71 70 -99 callgsubr
          </CharString>
          <CharString index="280">
            1487 rmoveto
            584 -94 0 76 -584 181 rlineto
            -475 vmoveto
            584 128 -584 hlineto
            return
          </CharString>
          <CharString index="281">
            1487 rmoveto
            163 vlineto
            -584 -181 rlineto
            -76 vlineto
            -218 vmoveto
            584 128 -584 hlineto
            return
          </CharString>
          <CharString index="282">
            1142 rmoveto
            179 366 rlineto
            11 -239 vlineto
            -29 -377 rlineto
            -189 42 rmoveto
            70 56 51 return
          </CharString>
          <CharString index="283">
            -85 -124 vhcurveto
            185 hmoveto
            77 44 53 59 60 44 -53 -76 -78 -44 -51 -60 -59 -44 51 77 vhcurveto
            return
          </CharString>
          <CharString index="284">
            1660 rmoveto
            -78 -67 -32 -38 -38 hvcurveto
            -62 vlineto
            15 25 48 14 48 67 callgsubr
            return
          </CharString>
          <CharString index="285">
            1 365 rlineto
            271 90 -271 191 hlineto
            -278 -34 rlineto
            -157 -133 vlineto
            endchar
          </CharString>
          <CharString index="286">
            rmoveto
            -86 -50 106 234 232 45 93 84 86 50 -107 -234 -232 -46 -92 -83 hvcurveto
            return
          </CharString>
          <CharString index="287">
            1849 rmoveto
            -211 -145 -208 145 -95 0 211 -33 callgsubr
            return
          </CharString>
          <CharString index="288">
            58 46 43 57 59 -46 43 -58 hvcurveto
            -11 hlineto
            -58 -47 -43 -59 -57 47 -43 58 hvcurveto
            return
          </CharString>
          <CharString index="289">
            vlineto
            -86 -18 -19 -129 -17 vhcurveto
            -75 604 75 vlineto
            -136 17 -20 21 90 vvcurveto
            return
          </CharString>
          <CharString index="290">
            1888 rmoveto
            -101 -75 -44 -48 -37 hvcurveto
            -57 vlineto
            20 27 46 17 51 hhcurveto
            65 return
          </CharString>
          <CharString index="291">
            -41 -87 -56 hvcurveto
            79 hlineto
            160 61 59 58 73 vvcurveto
            79 -75 56 -111 vhcurveto
            return
          </CharString>
          <CharString index="292">
            hhcurveto
            83 callsubr
            hvcurveto
            334 17 rmoveto
            357 119 271 289 return
          </CharString>
          <CharString index="293">
            57 1213 rmoveto
            133 -1039 hlineto
            -67 -18 -17 -114 -15 vhcurveto
            -75 return
          </CharString>
          <CharString index="294">
            -98 -65 hvcurveto
            92 hlineto
            182 71 67 67 87 vvcurveto
            94 -86 65 -125 vhcurveto
            return
          </CharString>
          <CharString index="295">
            rmoveto
            70 57 52 69 69 -57 51 -70 -70 -57 -51 -69 -69 57 -52 70 hvcurveto
            return
          </CharString>
          <CharString index="296">
            1896 rmoveto
            -185 -102 -30 callgsubr
            84 callgsubr
            return
          </CharString>
          <CharString index="297">
            448 rmoveto
            275 -219 155 -365 vhcurveto
            -198 350 hlineto
            return
          </CharString>
          <CharString index="298">
            -220 79 -180 127 -129 vhcurveto
            -128 -142 69 -64 130 143 rlineto
            -101 131 166 -56 177 hhcurveto
            456 297 332 420 219 -80 181 -127 129 hvcurveto
            128 141 -68 64 -131 -143 rlineto
            101 -131 -166 56 -177 185 callsubr
            143 114 -84 -136 74 vhcurveto
            -684 -753 rlineto
            -36 100 -19 118 127 vvcurveto
            836 -32 rmoveto
            -356 -120 -272 -288 -144 -113 84 136 -74 vhcurveto
            683 754 rlineto
            36 -100 20 -118 -128 vvcurveto
            endchar
          </CharString>
          <CharString index="299">
            rmoveto
            312 233 216 311 145 -50 123 -84 89 hvcurveto
            92 98 -65 62 -95 -100 rlineto
            64 -90 -114 37 -128 hhcurveto
            -312 -233 -216 -311 -146 50 -124 86 -90 hvcurveto
            -87 -92 65 -63 90 96 rlineto
            -63 90 113 -36 127 hhcurveto
            -246 534 rmoveto
            256 89 156 156 87 71 -54 -96 46 vhcurveto
            -428 -454 rlineto
            -14 56 -7 65 71 vvcurveto
            257 -435 rmoveto
            -86 -70 53 94 -46 hvcurveto
            427 453 rlineto
            14 -55 7 -63 -70 vvcurveto
            -256 -90 -156 -156 vhcurveto
            endchar
          </CharString>
          <CharString index="300">
            rmoveto
            -288 152 -162 200 172 117 125 162 47 vhcurveto
            -160 34 109 -127 192 hhcurveto
            232 1 164 212 325 vvcurveto
            299 -127 210 -155 -109 -64 -102 -124 42 vhcurveto
            163 -37 118 -166 -194 vvcurveto
            -161 -79 -101 -115 -133 -76 126 274 vhcurveto
            192 -248 -194 vlineto
            -293 -70 -104 -109 -109 -60 108 213 227 70 179 123 104 vhcurveto
            -48 51 rlineto
            -267 -86 -166 -231 -278 vvcurveto
            endchar
          </CharString>
          <CharString index="301">
            rmoveto
            161 101 94 189 95 hvcurveto
            -200 46 72 -78 127 hhcurveto
            81 75 40 59 47 hvcurveto
            71 vlineto
            -12 -16 -25 -8 -25 hhcurveto
            -70 -53 60 281 -75 hvcurveto
            -2 9 233 520 rlineto
            -268 hlineto
            -19 -95 -27 -106 -29 -104 rrcurveto
            211 -65 -102 115 -207 hhcurveto
            -261 -172 -222 -304 -340 173 -180 205 hvcurveto
            -87 541 rmoveto
            240 69 156 116 110 51 -106 -244 43 vhcurveto
            30 -174 rlineto
            -181 -67 -67 -83 -98 hhcurveto
            -118 -69 161 231 hvcurveto
            endchar
          </CharString>
          <CharString index="302">
            rmoveto
            235 165 89 123 83 hvcurveto
            75 vlineto
            -61 -73 -127 -46 -153 hhcurveto
            -158 -1 -96 53 95 vvcurveto
            95 95 57 192 vhcurveto
            91 hlineto
            -35 176 rlineto
            -44 hlineto
            -220 -90 49 96 87 81 60 158 77 64 -11 -20 49 hvcurveto
            -34 -20 -23 -37 -44 vvcurveto
            -61 46 -57 77 70 54 54 71 123 -130 102 -286 -307 -153 -124 -165 -155 138 -94 214 -4 vhcurveto
            -236 -7 -139 -87 -143 vvcurveto
            -166 164 -102 251 vhcurveto
            endchar
          </CharString>
          <CharString index="303">
            -445 326 -285 387 -18 vhcurveto
            -89 -72 -62 -95 -96 vvcurveto
            -120 93 -76 121 91 79 39 55 35 vhcurveto
            74 vlineto
            -15 -17 -29 -12 -33 hhcurveto
            -72 -59 74 105 53 14 51 22 36 hvcurveto
            424 26 273 321 403 vvcurveto
            -106 callsubr
            -404 83 callsubr
            70 callsubr
            289 266 162 -289 -371 -356 -120 -272 -288 -266 -162 290 370 vhcurveto
            endchar
          </CharString>
          <CharString index="304">
            rmoveto
            -87 71 -66 97 155 107 116 252 131 vhcurveto
            451 865 63 123 28 23 124 18 rlinecurve
            75 -452 -75 vlineto
            170 -21 6 -16 -61 -128 rrcurveto
            -283 -589 -313 598 -62 119 5 18 168 19 rlinecurve
            75 -648 -75 vlineto
            121 -18 25 -23 62 -111 rrcurveto
            487 -886 -55 -109 -48 -74 -54 -43 rlinecurve
            4 1 5 5 vvcurveto
            84 -66 69 -82 -82 -66 -65 -82 vhcurveto
            endchar
          </CharString>
          <CharString index="305">
            204 -99 162 -165 77 hvcurveto
            -11 44 50 -5 49 hhcurveto
            154 102 65 111 hvcurveto
            1 92 -68 93 -93 49 rrcurveto
            -75 hlineto
            20 -27 17 -57 -54 vvcurveto
            -117 -1 -79 -85 -143 -84 -67 22 -117 hhcurveto
            -302 -230 -221 -307 -312 216 -207 321 hvcurveto
            12 101 rmoveto
            -153 -101 168 264 261 86 152 156 152 101 -167 -265 -261 -86 -152 -155 hvcurveto
            return
          </CharString>
          <CharString index="306">
            rmoveto
            94 79 39 53 37 hvcurveto
            -1 74 rlineto
            -16 -16 -28 -11 -33 hhcurveto
            -72 -57 78 118 46 11 48 19 39 hvcurveto
            278 30 200 207 287 vvcurveto
            -100 callsubr
            -302 216 -206 297 -10 vhcurveto
            -88 -78 -58 -95 -97 vvcurveto
            -118 95 -77 113 vhcurveto
            -26 565 rmoveto
            -151 -103 167 267 255 87 156 155 150 103 -167 -266 -256 -87 -156 -154 hvcurveto
            endchar
          </CharString>
          <CharString index="307">
            rmoveto
            298 vlineto
            120 -1 275 -465 rlineto
            349 71 hlineto
            -68 18 -42 44 -90 152 rrcurveto
            -224 367 62 65 167 167 48 26 107 18 rlinecurve
            76 -431 -76 vlineto
            122 -17 14 -39 -98 -106 rrcurveto
            -194 -212 -117 -1 rlineto
            282 vlineto
            106 callgsubr
            -63 callsubr
            -85 callsubr
            endchar
          </CharString>
          <CharString index="308">
            rmoveto
            322 -185 189 -225 -150 -128 -73 -109 -52 vhcurveto
            2 651 73 callsubr
            -16 8 -15 -58 vvcurveto
            -1268 130 vlineto
            108 125 rlineto
            -81 51 113 -65 138 hhcurveto
            265 212 206 329 hvcurveto
            -287 -25 rmoveto
            -250 -109 -147 -158 -88 -67 44 50 -29 vhcurveto
            590 vlineto
            65 35 69 39 89 hhcurveto
            153 105 -144 -247 hvcurveto
            return
          </CharString>
          <CharString index="309">
            335 652 rmoveto
            170 144 85 160 109 -79 86 -129 20 hvcurveto
            110 19 73 66 89 vvcurveto
            104 -98 70 -147 -154 -104 -84 -120 -40 vhcurveto
            47 -24 79 callgsubr
            -17 hvcurveto
            -59 vlineto
            2 16 25 3 20 hhcurveto
            111 79 -62 -102 -95 -71 -54 -89 -41 -35 11 17 -26 hvcurveto
            29 12 20 28 33 vvcurveto
            46 -36 34 -46 -48 -35 -36 -47 -95 106 -77 155 vhcurveto
            return
          </CharString>
          <CharString index="310">
            287 hlineto
            100 -6 657 -1 vvcurveto
            74 29 68 44 92 hhcurveto
            134 67 -74 -227 -302 -6 -378 -10 -353 hvcurveto
            287 hlineto
            -2 1093 rlineto
            292 -146 100 -198 -170 -116 -86 -112 -44 vhcurveto
            122 -12 -77 68 -117 hhcurveto
            -86 -79 -35 -42 -44 hvcurveto
            -73 vlineto
            6 12 19 4 23 hhcurveto
            81 36 -43 -122 -2 hvcurveto
            -37 -17 -602 -3 -73 vhcurveto
            endchar
          </CharString>
          <CharString index="311">
            511 75 vlineto
            -103 14 -13 15 64 vvcurveto
            553 vlineto
            25 -2 24 -4 20 vhcurveto
            53 35 67 37 92 hhcurveto
            124 74 -76 -148 hvcurveto
            -488 vlineto
            -64 -13 -15 -103 -14 vhcurveto
            -75 527 75 vlineto
            -114 15 -18 17 67 vvcurveto
            524 vlineto
            213 -136 114 -204 -165 -125 -81 -102 -53 vhcurveto
            118 -42 -117 65 -158 hhcurveto
            -164 -120 -80 -100 -52 hvcurveto
            return
          </CharString>
          <CharString index="312">
            137 -115 200 165 119 78 103 55 vhcurveto
            -171 vlineto
            413 47 0 69 -70 18 rlineto
            -59 16 -10 14 59 vvcurveto
            739 vlineto
            -2 15 16 -1 17 hhcurveto
            116 82 57 106 1 hvcurveto
            1 90 -70 94 -96 48 rrcurveto
            -75 hlineto
            20 -26 17 -54 -55 vvcurveto
            -130 -85 -76 -247 -23 vhcurveto
            -127 -12 0 -68 68 -18 rlineto
            59 -17 10 -14 -58 vvcurveto
            69 callgsubr
            return
          </CharString>
          <CharString index="313">
            rmoveto
            716 vlineto
            267 -9 0 112 -267 -8 rlineto
            199 vlineto
            154 52 60 83 vhcurveto
            4 4 0 4 hhcurveto
            -19 -19 -12 -27 -31 vvcurveto
            -64 47 -46 63 61 49 47 63 98 -88 76 -164 -208 -153 -133 -261 vhcurveto
            -110 vlineto
            -134 -49 rlineto
            -61 132 -719 -5 callsubr
            -75 558 75 vlineto
            -129 16 -18 16 78 vvcurveto
            endchar
          </CharString>
          <CharString index="314">
            647 vlineto
            347 293 142 279 hvcurveto
            -377 648 rmoveto
            -170 -106 -97 -194 -1 vhcurveto
            -152 556 hlineto
            113 -4 rlineto
            239 -7 100 -109 -168 vvcurveto
            58 -665 rmoveto
            -204 -151 -102 -246 -7 vhcurveto
            -113 -4 0 627 152 -1 rlineto
            231 -1 127 -116 -192 vvcurveto
            return
          </CharString>
          <CharString index="315">
            67 18 18 114 14 vhcurveto
            76 -524 -76 vlineto
            100 -13 13 -16 -64 vvcurveto
            -747 -358 747 vlineto
            64 13 16 101 13 vhcurveto
            76 -507 -76 vlineto
            100 -13 14 -16 -64 vvcurveto
            -747 -359 747 vlineto
            64 14 16 100 13 vhcurveto
            76 -524 0 callsubr
            21 callsubr
            return
          </CharString>
          <CharString index="316">
            421 -1169 221 0 418 1149 64 176 27 29 120 17 rlinecurve
            75 -451 -75 vlineto
            152 -21 18 -34 -55 -163 rrcurveto
            -304 -901 -313 914 -52 151 22 34 146 20 rlinecurve
            75 -638 -75 vlineto
            116 -17 31 -29 57 -156 rrcurveto
            return
          </CharString>
          <CharString index="317">
            rmoveto
            298 232 211 314 315 -209 207 -314 -303 -233 -210 -315 -314 210 -208 319 hvcurveto
            8 101 rmoveto
            -151 -90 173 263 255 82 154 151 145 91 -172 -264 -255 -83 -154 -145 hvcurveto
            endchar
          </CharString>
          <CharString index="318">
            1835 rmoveto
            599 -80 0 64 -599 155 rlineto
            1 -480 rmoveto
            299 88 71 callgsubr
            return
          </CharString>
          <CharString index="319">
            303 -765 161 0 297 749 58 145 22 19 92 16 rlinecurve
            76 -377 -76 vlineto
            125 -13 18 -27 -45 -126 rrcurveto
            -178 -494 -179 495 -45 126 19 26 126 13 rlinecurve
            76 -562 -76 vlineto
            91 -18 25 -24 49 -122 rrcurveto
            return
          </CharString>
          <CharString index="320">
            0 122 1442 rmoveto
            100 71 69 138 -1 hvcurveto
            -84 hlineto
            -52 -26 -22 -43 -27 -28 8 14 -38 vhcurveto
            -33 12 rlineto
            17 -43 -44 12 -48 hhcurveto
            -99 -72 -70 -138 1 hvcurveto
            84 hlineto
            53 26 22 43 27 28 -8 -15 38 vhcurveto
            33 -12 rlineto
            -16 43 44 -12 48 hhcurveto
            return
          </CharString>
          <CharString index="321">
            -165 -160 -45 -287 -2 rrcurveto
            104 vlineto
            319 44 227 220 320 vvcurveto
            347 -293 264 -440 -447 -283 -270 -355 -312 231 -217 315 -41 vhcurveto
            -104 vlineto
            -281 2 -161 42 -73 168 rrcurveto
            -61 hlineto
            return
          </CharString>
          <CharString index="322">
            -145 -173 232 -190 hhcurveto
            -173 -111 -119 -259 hvcurveto
            130 hlineto
            166 2 60 65 90 147 173 -232 190 hhcurveto
            172 111 119 259 hvcurveto
            -130 hlineto
            -166 -2 -59 -65 -92 hhcurveto
            return
          </CharString>
          <CharString index="323">
            1431 1347 421 rmoveto
            223 -183 123 -269 19 vhcurveto
            209 19 173 105 187 vvcurveto
            221 -209 126 -361 vhcurveto
            -647 -79 callsubr
            -102 callsubr
            207 callsubr
            return
          </CharString>
          <CharString index="324">
            1320 1444 rmoveto
            -1261 hlineto
            -12 -371 rlineto
            70 hlineto
            45 227 69 41 238 12 49 2 rcurveline
            -1138 vlineto
            -98 -21 -26 -147 -18 vhcurveto
            -75 627 75 vlineto
            -137 17 -20 22 91 vvcurveto
            return
          </CharString>
          <CharString index="325">
            -484 rmoveto
            91 87 31 49 39 hvcurveto
            -1 74 rlineto
            -18 -19 -35 -12 -41 hhcurveto
            -58 -53 39 78 84 53 80 149 114 hvcurveto
            -85 -1 rlineto
            -244 -128 -84 -110 -108 vvcurveto
            -109 87 -63 114 vhcurveto
            endchar
          </CharString>
          <CharString index="326">
            0 -159 1799 rmoveto
            56 43 36 49 50 -43 36 -56 hvcurveto
            -11 hlineto
            -56 -43 -36 -50 -49 43 -36 56 hvcurveto
            339 hmoveto
            56 44 36 49 50 -44 36 -56 hvcurveto
            -10 hlineto
            -56 -44 -36 -50 -49 44 -36 56 hvcurveto
            return
          </CharString>
          <CharString index="327">
            683 1799 rmoveto
            55 44 36 49 50 -44 36 -55 hvcurveto
            -11 hlineto
            -56 -44 -36 -50 -49 44 -36 56 hvcurveto
            339 hmoveto
            56 43 36 49 50 -43 36 -56 hvcurveto
            -11 hlineto
            -55 -44 -36 -50 -49 44 -36 55 hvcurveto
            return
          </CharString>
          <CharString index="328">
            1581 rmoveto
            195 72 callgsubr
            48 -9 hvcurveto
            -35 -43 -63 -21 -73 hhcurveto
            -74 -62 21 35 -42 hvcurveto
            47 8 36 44 52 vvcurveto
            61 -47 49 -65 -68 -47 -48 -74 -131 127 -104 196 vhcurveto
            return
          </CharString>
          <CharString index="329">
            465 vlineto
            214 -2 92 -2 26 -36 29 -164 rlinecurve
            67 496 -67 hlineto
            -32 -165 -24 -35 -91 -2 rrcurveto
            -214 -2 0 587 203 -7 245 -10 73 -49 53 -225 rlinecurve
            71 hlineto
            endchar
          </CharString>
          <CharString index="330">
            1527 rmoveto
            -115 -84 -52 -57 -43 hvcurveto
            -67 vlineto
            24 29 52 19 58 hhcurveto
            71 45 -32 -52 -55 -44 -47 -99 -65 hvcurveto
            92 hlineto
            182 71 68 67 87 vvcurveto
            94 -86 65 -126 vhcurveto
            return
          </CharString>
          <CharString index="331">
            162 126 83 125 124 -125 84 -163 -163 -125 -85 -124 vhcurveto
            184 hmoveto
            77 44 53 60 60 44 -53 -76 -78 -44 -51 -60 -60 -44 51 77 vhcurveto
            endchar
          </CharString>
          <CharString index="332">
            660 hlineto
            2 17 2 29 28 vvcurveto
            262 -162 169 -278 -301 -206 -215 21 callgsubr
            -413 -2 rlineto
            210 6 87 109 132 hhcurveto
            return
          </CharString>
          <CharString index="333">
            268 1475 rmoveto
            -78 -55 -53 -80 hvcurveto
            -1 -54 12 -40 28 -121 rrcurveto
            64 -275 59 0 65 275 rlineto
            28 120 12 41 54 vvcurveto
            80 -1 -55 53 -78 hhcurveto
            return
          </CharString>
          <CharString index="334">
            605 vlineto
            254 175 119 194 hvcurveto
            -518 215 rmoveto
            156 -3 80 -81 -137 vvcurveto
            -137 -98 -74 -140 -5 vhcurveto
            -104 -4 rlineto
            441 vlineto
            endchar
          </CharString>
          <CharString index="335">
            416 1466 rmoveto
            -164 -38 -152 -130 -190 vvcurveto
            -127 69 -89 107 109 63 92 112 vhcurveto
            -93 6 -64 54 81 vvcurveto
            80 65 57 85 25 vhcurveto
            return
          </CharString>
          <CharString index="336">
            43 hvcurveto
            232 vlineto
            139 -98 60 -163 -161 -106 -64 -80 -47 37 -32 51 50 38 36 48 24 -11 22 -17 14 vhcurveto
            5 18 21 3 22 hhcurveto
            81 50 -36 return
          </CharString>
          <CharString index="337">
            146 67 56 -16 -27 42 vhcurveto
            -48 -17 -35 -47 -57 vvcurveto
            -75 58 -57 76 74 62 58 77 162 -174 103 -222 -264 -229 -136 -270 return
          </CharString>
          <CharString index="338">
            983 77 1004 rmoveto
            -7 -316 rlineto
            71 hlineto
            47 179 48 37 171 8 rrcurveto
            190 6 -536 -44 callgsubr
            76 callgsubr
            return
          </CharString>
          <CharString index="339">
            -65 -28 -32 -38 hvcurveto
            -53 vlineto
            14 26 47 12 46 hhcurveto
            65 36 -23 -35 -34 -34 -23 -75 -17 hvcurveto
            65 -40 rlineto
            124 25 72 40 76 vvcurveto
            75 -88 43 return
          </CharString>
          <CharString index="340">
            -15 -16 -28 -12 -34 hhcurveto
            -72 -59 78 109 62 17 59 return
          </CharString>
          <CharString index="341">
            -17 -423 rlineto
            71 hlineto
            186 47 73 34 241 hhcurveto
            return
          </CharString>
          <CharString index="342">
            -44 10 -49 hhcurveto
            -102 -73 -60 -117 1 hvcurveto
            85 hlineto
            45 return
          </CharString>
          <CharString index="343">
            -64 -114 -121 -166 vvcurveto
            -214 217 -149 return
          </CharString>
          <CharString index="344">
            -71 hlineto
            12 -321 98 -67 161 -42 164 -1 rlinecurve
            return
          </CharString>
          <CharString index="345">
            vhcurveto
            -743 vlineto
            -128 60 -84 135 191 vvcurveto
            endchar
          </CharString>
          <CharString index="346">
            vlineto
            57 34 72 42 96 hhcurveto
            129 77 -76 -145 hvcurveto
            return
          </CharString>
          <CharString index="347">
            vlineto
            53 -3 253 -12 71 -46 45 -230 rlinecurve
            71 hlineto
            return
          </CharString>
          <CharString index="348">
            vlineto
            -97 -76 -71 -105 -108 vvcurveto
            -121 94 -76 120 return
          </CharString>
          <CharString index="349">
            rlineto
            -65 vlineto
            3 10 18 3 17 hhcurveto
            69 51 -26 -52 -51 return
          </CharString>
        <CharString name=".notdef">
          2048 120 -494 rmoveto
          169 2444 -169 95 callgsubr
          409 -2444 rmoveto
          170 2444 -170 hlineto
          410 -2444 rmoveto
          170 2444 -170 95 callgsubr
          endchar
        </CharString>
        <CharString name=".null">
          0 endchar
        </CharString>
        <CharString name="A">
          1463 1268 277 -103 callsubr
        </CharString>
        <CharString name="AE">
          1969 1838 1444 147 callsubr
        </CharString>
        <CharString name="AEacute">
          1969 1222 -75 callsubr
          710 -107 147 callsubr
        </CharString>
        <CharString name="AEmacron">
          1969 973 -53 callsubr
          865 -302 147 callsubr
        </CharString>
        <CharString name="Aacute">
          1463 696 -36 callsubr
          -7 callsubr
          666 -1274 -103 callsubr
        </CharString>
        <CharString name="Abreve">
          1463 728 1583 rmoveto
          186 101 -106 callgsubr
          -80 -6 hlineto
          -88 -79 -66 -124 -123 -79 66 88 vhcurveto
          6 -81 123 callsubr
          540 -1306 -103 callsubr
        </CharString>
        <CharString name="Abreveacute">
          1463 1028 -69 callgsubr
          299 -245 rmoveto
          183 124 84 135 -7 hvcurveto
          -86 hlineto
          -56 -3 -90 45 callsubr
          540 -1253 -103 callsubr
        </CharString>
        <CharString name="Abrevecyrillic">
          1463 728 1581 rmoveto
          196 72 callgsubr
          47 -9 hvcurveto
          -35 -42 -63 -21 -73 hhcurveto
          -74 -62 21 35 -43 hvcurveto
          47 8 37 44 52 vvcurveto
          61 -47 49 -65 -69 -47 -48 -74 -131 128 -104 195 vhcurveto
          540 -1304 -103 callsubr
        </CharString>
        <CharString name="Abrevedotbelow">
          1463 728 1583 rmoveto
          186 101 -106 callgsubr
          -80 -6 hlineto
          -88 -79 -66 -124 -123 -79 66 88 vhcurveto
          6 -81 123 callsubr
          540 -1306 rmoveto
          -24 callsubr
          39 callsubr
          -172 -756 -76 callsubr
        </CharString>
        <CharString name="Abrevegrave">
          1463 429 96 callgsubr
          299 -465 rmoveto
          183 124 84 135 -7 hvcurveto
          -86 hlineto
          -56 -3 -90 45 callsubr
          540 -1253 -103 callsubr
        </CharString>
        <CharString name="Abrevehookabove">
          1463 721 1990 rmoveto
          -82 31 callgsubr
          -78 -16 hvcurveto
          67 -41 rlineto
          130 26 75 39 76 vvcurveto
          75 -91 44 -107 vhcurveto
          7 -460 rmoveto
          183 124 84 135 -7 hvcurveto
          -86 hlineto
          -56 -3 -90 45 callsubr
          540 -1253 -103 callsubr
        </CharString>
        <CharString name="Abrevetilde">
          1463 853 1801 rmoveto
          103 72 60 117 hvcurveto
          -86 hlineto
          -45 -28 -19 -43 -28 -28 7 12 -39 vhcurveto
          -34 11 rlineto
          14 -45 -44 11 -50 hhcurveto
          -101 -73 -60 -118 hvcurveto
          86 hlineto
          45 27 19 45 27 28 -6 -13 39 vhcurveto
          34 -10 rlineto
          -15 45 44 -10 49 hhcurveto
          -125 -271 rmoveto
          183 124 84 135 -7 hvcurveto
          -86 hlineto
          -56 -3 -90 45 callsubr
          540 -1253 -103 callsubr
        </CharString>
        <CharString name="Acaron">
          1463 951 -71 callsubr
          -39 callsubr
          225 -1572 -103 callsubr
        </CharString>
        <CharString name="Acircumflex">
          1463 531 -81 callsubr
          -6 callsubr
          16 callsubr
          829 -1274 -103 callsubr
        </CharString>
        <CharString name="Acircumflexacute">
          1463 1028 1835 -37 callgsubr
          -261 vmoveto
          299 88 300 -88 0 67 -274 157 -52 0 -272 -157 rlineto
          838 -1284 -103 callsubr
        </CharString>
        <CharString name="Acircumflexdotbelow">
          1463 531 -81 callsubr
          -6 callsubr
          16 callsubr
          829 -1274 rmoveto
          -24 callsubr
          39 callsubr
          -172 -756 -76 callsubr
        </CharString>
        <CharString name="Acircumflexgrave">
          1463 429 26 callgsubr
          300 -88 0 67 -274 157 -52 0 -272 -157 rlineto
          838 -1284 -103 callsubr
        </CharString>
        <CharString name="Acircumflexhookabove">
          1463 977 1942 rmoveto
          -77 -66 -28 -32 -37 hvcurveto
          -53 vlineto
          14 26 46 12 47 hhcurveto
          65 36 -23 -35 -34 -34 -23 -75 -17 hvcurveto
          64 -40 rlineto
          124 25 73 40 76 vvcurveto
          75 -89 43 -103 vhcurveto
          -548 -448 rmoveto
          299 88 300 -88 0 67 -274 157 -52 0 -272 -157 rlineto
          838 -1284 -103 callsubr
        </CharString>
        <CharString name="Acircumflextilde">
          1463 853 1781 72 callsubr
          -28 -19 -43 -28 -28 6 13 -39 vhcurveto
          -34 10 rlineto
          15 -45 -44 10 -50 hhcurveto
          -101 -73 -60 -117 hvcurveto
          86 hlineto
          45 27 19 45 27 28 -7 -12 39 vhcurveto
          34 -11 rlineto
          -15 45 44 -9 49 hhcurveto
          -424 -287 rmoveto
          299 88 300 -88 0 67 -274 157 -52 0 -272 -157 rlineto
          838 -1284 -103 callsubr
        </CharString>
        <CharString name="Acyrillic">
          1463 1268 277 -103 callsubr
        </CharString>
        <CharString name="Adblgrave">
          1463 540 139 callsubr
          307 -1274 -103 callsubr
        </CharString>
        <CharString name="Adieresis">
          1463 554 -14 callsubr
          -70 callsubr
          -51 callsubr
          67 callsubr
          365 -1302 -103 callsubr
        </CharString>
        <CharString name="Adieresismacron">
          1463 429 82 callsubr
          141 -386 -21 callsubr
          20 callsubr
          381 -1276 -103 callsubr
        </CharString>
        <CharString name="Adotaccent">
          1463 728 -69 callsubr
          -66 callsubr
          540 -1299 -103 callsubr
        </CharString>
        <CharString name="Adotbelow">
          1463 1268 277 rmoveto
          -24 callsubr
          39 callsubr
          -172 -756 -76 callsubr
        </CharString>
        <CharString name="Adotmacron">
          1463 429 1806 94 callsubr
          299 -370 rmoveto
          61 47 40 54 54 -47 40 -61 -60 -48 -40 -54 -54 48 -40 60 hvcurveto
          540 -1268 -103 callsubr
        </CharString>
        <CharString name="Agrave">
          1463 785 -76 callgsubr
          824 -1556 -103 callsubr
        </CharString>
        <CharString name="Ahookabove">
          1463 758 161 callsubr
          510 -1611 -103 callsubr
        </CharString>
        <CharString name="Ainvertedbreve">
          1463 728 1896 rmoveto
          -186 -101 -30 callgsubr
          84 callgsubr
          80 -71 callgsubr
          540 -1619 -103 callsubr
        </CharString>
        <CharString name="Alphagreek">
          1463 1268 277 -103 callsubr
        </CharString>
        <CharString name="Alphatonosgreek">
          1463 1268 277 rmoveto
          -24 callsubr
          638 75 vlineto
          -116 17 -31 29 -57 156 rrcurveto
          -1026 790 133 callsubr
          279 -484 rmoveto
          208 611 211 -611 rlineto
          endchar
        </CharString>
        <CharString name="Amacron">
          1463 446 -46 callgsubr
          822 -1469 -103 callsubr
        </CharString>
        <CharString name="Aogonek">
          1463 1173 -486 rmoveto
          92 79 39 55 34 hvcurveto
          74 vlineto
          233 callsubr
          26 37 hvcurveto
          260 75 hlineto
          -116 17 -31 29 -57 156 rrcurveto
          -24 callsubr
          293 241 callsubr
          vhcurveto
          -747 1069 rmoveto
          208 611 211 -611 rlineto
          endchar
        </CharString>
        <CharString name="Aring">
          1463 468 1745 rmoveto
          -113 114 -76 146 147 114 75 114 112 -114 77 -147 -146 -3 callgsubr
          633 -1468 -103 callsubr
        </CharString>
        <CharString name="Aringacute">
          1463 1028 1839 -37 callgsubr
          334 -242 rmoveto
          131 84 42 64 64 -84 42 -131 9 callgsubr
          25 20 42 hvcurveto
          48 hlineto
          43 24 -20 -29 -30 -24 -19 -43 hvcurveto
          516 -1297 -103 callsubr
        </CharString>
        <CharString name="Aringbelow">
          1463 1268 277 rmoveto
          -24 callsubr
          39 callsubr
          -461 -877 rmoveto
          -113 127 66 callgsubr
          -163 -126 -75 -113 vhcurveto
          185 hmoveto
          67 44 45 60 59 44 -45 -67 -68 -44 -44 -59 -60 -44 45 67 vhcurveto
          endchar
        </CharString>
        <CharString name="Atilde">
          1463 851 168 callsubr
          417 -1285 -103 callsubr
        </CharString>
        <CharString name="B">
          1431 1347 421 101 callsubr
        </CharString>
        <CharString name="Bdotaccent">
          1431 715 1576 188 callsubr
          632 -1155 101 callsubr
        </CharString>
        <CharString name="Bdotbelow">
          216 callsubr
          -312 -577 -76 callsubr
        </CharString>
        <CharString name="Becyrillic">
          1371 1300 420 rmoveto
          251 -209 158 -384 vhcurveto
          -190 527 hlineto
          216 -7 251 -8 70 -43 53 -222 rlinecurve
          70 hlineto
          -11 368 rlineto
          -1106 -75 hlineto
          138 -18 89 callsubr
          -18 -21 -138 -18 vhcurveto
          -75 649 vlineto
          370 221 164 256 hvcurveto
          -320 -5 rmoveto
          -199 -117 -115 -240 -8 vhcurveto
          -106 -3 0 646 106 -3 rlineto
          236 -9 121 -116 -193 vvcurveto
          endchar
        </CharString>
        <CharString name="Betagreek">
          1431 1347 421 101 callsubr
        </CharString>
        <CharString name="Blinebelow">
          216 callsubr
          -603 -768 -49 callsubr
        </CharString>
        <CharString name="C">
          1446 95 723 -20 callsubr
          -43 callsubr
        </CharString>
        <CharString name="Cacute">
          1446 823 -36 callsubr
          -7 callsubr
          -634 -828 -20 callsubr
          -43 callsubr
        </CharString>
        <CharString name="Ccaron">
          1446 1078 -71 callsubr
          -39 callsubr
          -1075 -1126 -20 callsubr
          -43 callsubr
        </CharString>
        <CharString name="Ccedilla">
          1446 95 723 rmoveto
          -446 317 -280 405 -23 vhcurveto
          -104 -129 -18 callgsubr
          51 -26 -52 -51 -49 -28 -64 -52 -24 callgsubr
          77 -28 92 hhcurveto
          116 callsubr
          -3 hhcurveto
          60 75 rlineto
          185 7 170 51 80 58 12 352 rcurveline
          -39 callgsubr
          -43 callsubr
        </CharString>
        <CharString name="Ccedillaacute">
          1446 823 -36 callsubr
          -7 callsubr
          -634 -828 rmoveto
          -446 317 -280 405 -23 vhcurveto
          -104 -129 -18 callgsubr
          51 -26 -52 -51 -49 -28 -64 -52 -24 callgsubr
          77 -28 92 hhcurveto
          116 callsubr
          -3 hhcurveto
          60 75 rlineto
          185 7 170 51 80 58 12 352 rcurveline
          -39 callgsubr
          -43 callsubr
        </CharString>
        <CharString name="Ccircumflex">
          1446 658 -81 callsubr
          -6 callsubr
          16 callsubr
          -471 -828 -20 callsubr
          -43 callsubr
        </CharString>
        <CharString name="Cdotaccent">
          1446 855 -69 callsubr
          -66 callsubr
          -760 -853 -20 callsubr
          -43 callsubr
        </CharString>
        <CharString name="Checyrillic">
          1611 1395 -46 callsubr
          -604 -75 vlineto
          129 -17 18 -19 -86 vvcurveto
          -524 vlineto
          -30 -75 -98 -16 -105 hhcurveto
          -222 -103 114 236 hvcurveto
          220 vlineto
          86 18 19 129 17 vhcurveto
          75 -595 -75 vlineto
          130 -17 17 -19 -86 vvcurveto
          -216 vlineto
          -321 205 -152 325 149 135 30 40 90 vhcurveto
          -412 vlineto
          -97 -22 -26 -150 -18 vhcurveto
          -75 629 75 vlineto
          -137 18 -19 21 89 vvcurveto
          endchar
        </CharString>
        <CharString name="Chigreek">
          1425 283 297 32 callsubr
        </CharString>
        <CharString name="D">
          1599 15 callsubr
          endchar
        </CharString>
        <CharString name="Dbar">
          1599 60 695 rmoveto
          157 -492 hlineto
          -89 -19 -21 -138 -18 vhcurveto
          -75 620 vlineto
          453 382 281 464 448 -349 251 -496 hvcurveto
          -610 -79 callsubr
          -456 -157 vlineto
          1123 -60 132 callsubr
          rlineto
          608 298 90 -298 572 vlineto
          104 callgsubr
          endchar
        </CharString>
        <CharString name="Dcaron">
          1599 984 -71 callsubr
          -39 callsubr
          439 -1104 103 callsubr
          endchar
        </CharString>
        <CharString name="Dcircumflexbelow">
          1599 15 callsubr
          -662 -1188 -15 callsubr
          -41 callsubr
        </CharString>
        <CharString name="Dcommaaccent">
          1599 15 callsubr
          -466 -1202 23 callsubr
          93 callsubr
          -50 callgsubr
          47 -26 -47 vvcurveto
          -49 -97 callgsubr
          76 callsubr
        </CharString>
        <CharString name="Ddotaccent">
          1599 761 -69 callsubr
          -66 callsubr
          754 -831 103 callsubr
          endchar
        </CharString>
        <CharString name="Ddotbelow">
          1599 15 callsubr
          -450 -898 172 callsubr
        </CharString>
        <CharString name="Decyrillic">
          1526 1473 94 rmoveto
          -193 1134 hlineto
          97 22 26 147 18 vhcurveto
          75 -1253 -75 vlineto
          155 -19 33 -26 -5 -135 rrcurveto
          -9 -246 -14 -395 -48 -287 -129 -167 rlinecurve
          -151 hlineto
          -8 -416 rlineto
          80 hlineto
          276 63 91 46 252 hhcurveto
          492 hlineto
          263 79 -59 -263 61 hvcurveto
          80 hlineto
          -502 416 rmoveto
          -664 hlineto
          110 171 46 268 13 410 14 407 rcurveline
          481 hlineto
          endchar
        </CharString>
        <CharString name="Deltagreek">
          1352 42 hmoveto
          1267 151 hlineto
          -524 1295 -219 0 -524 -1294 rlineto
          140 48 rmoveto
          401 1016 390 -1016 rlineto
          endchar
        </CharString>
        <CharString name="Djecyrillic">
          1753 217 callsubr
          452 vlineto
          31 54 81 21 87 hhcurveto
          203 124 -134 -270 1 hvcurveto
          1 -272 -106 -220 -196 -136 37 -62 rcurveline
          337 141 228 253 327 vvcurveto
          323 -210 173 -300 -148 -122 -37 -43 -71 vhcurveto
          603 94 callgsubr
        </CharString>
        <CharString name="Dlinebelow">
          1599 15 callsubr
          -742 -1089 -33 callsubr
        </CharString>
        <CharString name="Dzecyrillic">
          1240 593 -28 95 callsubr
          endchar
        </CharString>
        <CharString name="Dzhecyrillic">
          1667 1450 1241 rmoveto
          89 19 21 138 18 vhcurveto
          75 -605 -75 vlineto
          127 -18 52 callgsubr
          18 vhcurveto
          75 -605 -62 callsubr
          -102 callsubr
          557 vlineto
          108 23 -29 -285 46 hvcurveto
          80 hlineto
          285 45 23 29 108 hhcurveto
          557 75 hlineto
          -138 18 -19 21 89 vvcurveto
          endchar
        </CharString>
        <CharString name="E">
          1307 1179 1444 -94 callsubr
        </CharString>
        <CharString name="Eacute">
          1307 644 -75 callsubr
          629 -107 -94 callsubr
        </CharString>
        <CharString name="Ebreve">
          1307 677 56 callsubr
          -41 callgsubr
          38 callgsubr
          502 -139 -94 callsubr
        </CharString>
        <CharString name="Ecaron">
          1307 900 180 callsubr
          188 -405 -94 callsubr
        </CharString>
        <CharString name="Ecedilla">
          1307 648 -477 rmoveto
          116 callsubr
          -4 hhcurveto
          79 99 rlineto
          3 486 -38 callsubr
          -44 callsubr
          -12 378 rlineto
          -40 callsubr
          -2 callgsubr
        </CharString>
        <CharString name="Ecedillabreve">
          1307 677 56 callsubr
          -41 callgsubr
          38 callgsubr
          -29 -2060 rmoveto
          116 callsubr
          -4 hhcurveto
          79 99 rlineto
          3 486 -38 callsubr
          -44 callsubr
          -12 378 rlineto
          -40 callsubr
          -2 callgsubr
        </CharString>
        <CharString name="Ecircumflex">
          1307 479 -81 callsubr
          -48 callsubr
          -52 callsubr
          791 -107 -94 callsubr
        </CharString>
        <CharString name="Ecircumflexacute">
          1307 976 1835 -36 callgsubr
          -261 vmoveto
          299 88 71 callgsubr
          801 -117 -94 callsubr
        </CharString>
        <CharString name="Ecircumflexbelow">
          1307 1179 1444 rmoveto
          -40 callsubr
          1165 -38 callsubr
          -44 callsubr
          -723 -1529 -15 callsubr
          -60 callgsubr
        </CharString>
        <CharString name="Ecircumflexdotbelow">
          1307 479 -81 callsubr
          -48 callsubr
          -52 callsubr
          791 -107 rmoveto
          -40 callsubr
          1165 -38 callsubr
          -44 callsubr
          -511 -1239 -76 callsubr
        </CharString>
        <CharString name="Ecircumflexgrave">
          1307 377 211 callsubr
          801 -117 -94 callsubr
        </CharString>
        <CharString name="Ecircumflexhookabove">
          1307 926 1942 rmoveto
          -78 232 callsubr
          -103 vhcurveto
          -548 -448 rmoveto
          299 88 71 callgsubr
          801 -117 -94 callsubr
        </CharString>
        <CharString name="Ecircumflextilde">
          1307 802 1781 9 callsubr
          6 13 -40 hvcurveto
          -33 10 rlineto
          15 -49 callgsubr
          85 hlineto
          45 1 27 19 44 hhcurveto
          27 28 -7 -12 40 hvcurveto
          33 -11 rlineto
          -15 46 43 155 callsubr
          801 -117 -94 callsubr
        </CharString>
        <CharString name="Ecyrillic">
          1468 95 723 -20 callsubr
          -272 -177 264 348 -16 hvcurveto
          642 -9 0 112 -643 -8 rlineto
          349 13 168 232 283 hhcurveto
          -15 callgsubr
        </CharString>
        <CharString name="Edblgrave">
          1307 489 1842 rmoveto
          -253 4 callgsubr
          270 -107 -94 callsubr
        </CharString>
        <CharString name="Edieresis">
          1307 503 6 callsubr
          54 51 67 68 -54 -70 callsubr
          328 -135 -94 callsubr
        </CharString>
        <CharString name="Edotaccent">
          1307 677 53 callsubr
          502 -132 -94 callsubr
        </CharString>
        <CharString name="Edotbelow">
          1307 1179 1444 rmoveto
          -40 callsubr
          1165 -38 callsubr
          -44 callsubr
          -511 -1239 -76 callsubr
        </CharString>
        <CharString name="Efcyrillic">
          1941 70 718 rmoveto
          -299 282 -185 477 -12 vhcurveto
          -33 vlineto
          -98 -21 -26 -148 -17 vhcurveto
          -76 621 76 vlineto
          -147 17 -22 26 98 vvcurveto
          33 vlineto
          484 12 275 184 303 vvcurveto
          293 -252 196 -507 12 vhcurveto
          33 vlineto
          98 22 26 147 17 vhcurveto
          76 -621 -76 vlineto
          148 -17 21 -26 -98 vvcurveto
          -33 vlineto
          -513 -12 -246 -194 -298 vvcurveto
          320 7 rmoveto
          209 123 176 316 17 vhcurveto
          -811 vlineto
          -305 18 -134 178 213 vvcurveto
          1162 -3 rmoveto
          -211 -135 -177 -305 -18 vhcurveto
          811 vlineto
          317 -17 123 -177 -211 vvcurveto
          endchar
        </CharString>
        <CharString name="Egrave">
          1307 734 71 callsubr
          786 -389 -94 callsubr
        </CharString>
        <CharString name="Ehookabove">
          1307 706 183 callsubr
          40 -28 -44 -46 -41 -41 -87 -56 hvcurveto
          85 callgsubr
          473 -444 -94 callsubr
        </CharString>
        <CharString name="Einvertedbreve">
          1307 676 1896 rmoveto
          -185 -102 -128 -134 -18 2 -18 2 -15 hvcurveto
          81 6 hlineto
          88 79 66 123 124 79 -66 -88 vhcurveto
          -6 81 vlineto
          3 16 1 17 18 vvcurveto
          134 -103 128 -185 vhcurveto
          503 -452 -94 callsubr
        </CharString>
        <CharString name="Elcyrillic">
          1530 24 callgsubr
          474 -1147 hlineto
          -90 -21 -21 -136 -17 vhcurveto
          -75 614 75 vlineto
          -136 17 -20 21 90 vvcurveto
          1038 vlineto
          91 20 20 136 17 vhcurveto
          75 -1234 -75 vlineto
          158 -18 29 -35 -8 callgsubr
          endchar
        </CharString>
        <CharString name="Emacron">
          1307 395 -53 callsubr
          784 -302 -94 callsubr
        </CharString>
        <CharString name="Emacronacute">
          1307 976 97 callgsubr
          -1 -190 94 callsubr
          802 -250 -94 callsubr
        </CharString>
        <CharString name="Emacrongrave">
          1307 377 -70 callgsubr
          -410 vmoveto
          599 109 -599 hlineto
          802 -250 -94 callsubr
        </CharString>
        <CharString name="Emcyrillic">
          1885 557 1444 34 callsubr
        </CharString>
        <CharString name="Encyrillic">
          -16 callsubr
          -74 callsubr
          -68 callsubr
          141 callsubr
          endchar
        </CharString>
        <CharString name="Eogonek">
          1307 1034 -486 rmoveto
          93 78 39 55 35 hvcurveto
          -1 74 rlineto
          233 callsubr
          27 37 hvcurveto
          151 hlineto
          15 422 rlineto
          -71 hlineto
          -57 -273 -69 -42 -44 callsubr
          -12 378 rlineto
          -40 callsubr
          928 vlineto
          -97 -76 -70 -105 -108 vvcurveto
          -121 92 -76 121 vhcurveto
          endchar
        </CharString>
        <CharString name="Epsilongreek">
          1307 1179 1444 -94 callsubr
        </CharString>
        <CharString name="Epsilontonosgreek">
          1635 1507 1444 rmoveto
          -1118 -75 hlineto
          138 -18 89 callsubr
          -18 -21 -138 -18 vhcurveto
          -75 1164 -38 callsubr
          -278 -11 rrcurveto
          -247 -9 0 608 241 -2 93 -2 27 -38 29 -162 rlinecurve
          67 495 -67 hlineto
          -33 -164 -24 -36 -92 -2 rrcurveto
          -241 -2 0 575 228 -8 248 -10 73 -50 54 -223 rlinecurve
          71 hlineto
          -1423 1 133 callsubr
          endchar
        </CharString>
        <CharString name="Ercyrillic">
          1386 1303 1017 36 callsubr
        </CharString>
        <CharString name="Ereversedcyrillic">
          1473 123 90 rmoveto
          -64 90 197 -54 189 hhcurveto
          439 340 288 478 458 -322 276 -454 -213 -172 -48 -62 -87 hvcurveto
          -12 -319 rlineto
          71 hlineto
          227 55 134 97 199 hhcurveto
          276 175 -225 -357 17 hvcurveto
          -640 8 0 -112 641 8 rlineto
          -355 -12 -183 -257 -276 hhcurveto
          -189 -147 82 250 -57 hvcurveto
          -71 hlineto
          endchar
        </CharString>
        <CharString name="Escyrillic">
          1446 95 723 -20 callsubr
          -43 callsubr
        </CharString>
        <CharString name="Etagreek">
          -16 callsubr
          -74 callsubr
          -68 callsubr
          141 callsubr
          endchar
        </CharString>
        <CharString name="Etatonosgreek">
          2006 846 197 rmoveto
          494 642 -494 vlineto
          -86 -18 -19 -129 -17 vhcurveto
          -75 605 75 vlineto
          -136 17 -21 21 90 vvcurveto
          1038 vlineto
          91 21 20 136 17 vhcurveto
          75 -605 -75 vlineto
          129 -17 18 -19 -86 vvcurveto
          -462 -642 462 vlineto
          85 20 19 128 17 vhcurveto
          76 -605 -75 vlineto
          138 -18 89 callsubr
          -19 -21 -137 -18 vhcurveto
          -75 605 75 vlineto
          -128 17 -20 20 85 vvcurveto
          -749 870 133 callsubr
          endchar
        </CharString>
        <CharString name="Etilde">
          1307 799 1562 rmoveto
          101 80 76 202 -3 hvcurveto
          -86 hlineto
          -91 -3 -23 75 callsubr
          -29 21 rlineto
          36 -53 -44 23 -58 hhcurveto
          -102 -79 -77 -201 3 hvcurveto
          86 hlineto
          91 3 23 31 41 hhcurveto
          28 24 -13 -23 33 hvcurveto
          29 -21 rlineto
          -37 53 44 -22 58 hhcurveto
          380 -118 -94 callsubr
        </CharString>
        <CharString name="Etildebelow">
          1307 1179 1444 rmoveto
          -40 callsubr
          1165 -38 callsubr
          -44 callsubr
          -392 -1491 rmoveto
          98 128 callsubr
          -27 -24 13 23 -32 hvcurveto
          -29 21 rlineto
          35 -51 -43 23 -57 hhcurveto
          -98 -77 -75 -194 3 hvcurveto
          81 hlineto
          89 3 21 73 callgsubr
          57 hhcurveto
          endchar
        </CharString>
        <CharString name="F">
          1209 1151 1444 rmoveto
          -1091 -79 callsubr
          -102 callsubr
          -27 callsubr
          222 callsubr
        </CharString>
        <CharString name="Fdotaccent">
          1209 667 53 callsubr
          484 -132 rmoveto
          -1091 -79 callsubr
          -102 callsubr
          -27 callsubr
          222 callsubr
        </CharString>
        <CharString name="G">
          1575 95 722 -25 callsubr
        </CharString>
        <CharString name="Gacute">
          1575 818 -55 callsubr
          -630 -829 -25 callsubr
        </CharString>
        <CharString name="Gammagreek">
          1197 1135 1444 rmoveto
          -1075 -79 callsubr
          -102 callsubr
          -27 callsubr
          1140 vlineto
          190 -6 243 -8 74 -47 51 -220 rlinecurve
          71 hlineto
          endchar
        </CharString>
        <CharString name="Gbreve">
          1575 851 56 callsubr
          -41 callgsubr
          -123 -123 -80 66 88 vhcurveto
          6 -80 123 callsubr
          -756 -861 -25 callsubr
        </CharString>
        <CharString name="Gcaron">
          1575 1074 180 callsubr
          -1070 -1127 -25 callsubr
        </CharString>
        <CharString name="Gcircumflex">
          1575 654 1551 rmoveto
          210 145 -48 callsubr
          -52 callsubr
          -467 -829 -25 callsubr
        </CharString>
        <CharString name="Gcommaaccent">
          1575 95 722 rmoveto
          -459 339 -291 434 209 205 55 81 117 vhcurveto
          390 vlineto
          89 17 19 135 14 vhcurveto
          75 -586 -75 vlineto
          148 -15 17 -18 -88 vvcurveto
          -360 vlineto
          -38 -51 -84 -23 -101 hhcurveto
          -286 -179 291 375 372 169 250 296 206 132 -116 -234 56 hvcurveto
          71 hlineto
          -11 351 rlineto
          61 -86 -170 44 -221 hhcurveto
          -439 -337 -276 -474 hvcurveto
          750 -1199 -10 callsubr
          -83 -66 -31 -36 -28 hvcurveto
          -66 vlineto
          8 19 33 44 callsubr
        </CharString>
        <CharString name="Gdotaccent">
          1575 851 135 callsubr
          -70 -57 -51 -69 -69 56 -52 71 hvcurveto
          -756 -854 -25 callsubr
        </CharString>
        <CharString name="Geacutecyrillic">
          1198 599 -75 callsubr
          630 -107 rmoveto
          -1075 -79 callsubr
          -102 callsubr
          -27 callsubr
          37 callgsubr
        </CharString>
        <CharString name="Gecyrillic">
          1198 1135 1444 rmoveto
          -1075 -79 callsubr
          -102 callsubr
          -27 callsubr
          37 callgsubr
        </CharString>
        <CharString name="Germandbls">
          1527 518 hmoveto
          1357 vlineto
          197 -7 rlineto
          271 -11 114 -114 -151 vvcurveto
          -133 -84 -86 -151 -23 vhcurveto
          -180 vlineto
          204 -52 117 -124 -173 vvcurveto
          -146 -81 -81 -114 -132 -98 115 195 -34 vhcurveto
          -70 -329 hlineto
          -43 60 127 -41 154 hhcurveto
          220 226 133 271 225 -130 173 -206 66 hvcurveto
          158 19 120 101 149 vvcurveto
          201 -179 133 -407 vhcurveto
          -740 -75 hlineto
          138 -17 19 -21 -88 vvcurveto
          -1042 vlineto
          -88 -19 -21 -138 -17 vhcurveto
          -75 vlineto
          endchar
        </CharString>
        <CharString name="Geupturncyrillic">
          1168 1108 1350 rmoveto
          9 410 rlineto
          -80 hlineto
          -280 -81 -47 -36 -221 hhcurveto
          -628 -79 callsubr
          -102 callsubr
          -27 callsubr
          1133 vlineto
          endchar
        </CharString>
        <CharString name="Gmacron">
          1575 569 -53 callsubr
          -474 -1024 -25 callsubr
        </CharString>
        <CharString name="H">
          -16 callsubr
          -74 callsubr
          -68 callsubr
          141 callsubr
          endchar
        </CharString>
        <CharString name="Hacyrillic">
          1425 283 297 32 callsubr
        </CharString>
        <CharString name="Hardsigncyrillic">
          1620 1542 190 callsubr
          1 97 21 26 148 18 rrcurveto
          75 -872 vlineto
          -11 -368 rlineto
          70 hlineto
          44 226 64 42 227 9 rrcurveto
          7 -1140 hlineto
          -96 -21 -24 -146 -18 vhcurveto
          -75 677 vlineto
          373 200 196 252 hvcurveto
          -320 -9 rmoveto
          -207 -107 -131 -233 -8 vhcurveto
          -122 41 callgsubr
        </CharString>
        <CharString name="Hbar">
          -16 callsubr
          831 156 90 -156 117 34 callgsubr
          -123 -642 123 vlineto
          85 130 callsubr
          -117 -157 -90 157 -831 80 callsubr
          141 callsubr
          588 vmoveto
          249 642 -249 vlineto
          endchar
        </CharString>
        <CharString name="Hbrevebelow">
          -16 callsubr
          -74 callsubr
          -68 callsubr
          141 callsubr
          322 -652 rmoveto
          191 104 131 138 19 -1 18 -3 16 hvcurveto
          -81 -6 hlineto
          -89 -81 -67 -129 -128 -82 67 89 vhcurveto
          6 -80 vlineto
          -3 -16 -2 -51 callgsubr
        </CharString>
        <CharString name="Hcaron">
          1677 1063 1848 rmoveto
          -210 -144 -209 144 -95 0 212 -290 182 0 212 290 rlineto
          -637 -1651 60 callsubr
          -74 callsubr
          -68 callsubr
          141 callsubr
          endchar
        </CharString>
        <CharString name="Hcedilla">
          -16 callsubr
          -74 callsubr
          -68 callsubr
          264 vlineto
          -123 -155 -18 callgsubr
          50 -26 -52 -51 -48 -28 -64 -52 -54 15 22 -30 hvcurveto
          -1 -74 rlineto
          -41 42 77 -28 93 hhcurveto
          131 122 -73 callgsubr
          79 102 rlineto
          247 75 hlineto
          -128 17 -19 20 85 vvcurveto
          endchar
        </CharString>
        <CharString name="Hcircumflex">
          1677 643 -81 callsubr
          -6 callsubr
          290 -182 0 -212 -290 rlineto
          -33 -1354 60 callsubr
          -74 callsubr
          -68 callsubr
          141 callsubr
          endchar
        </CharString>
        <CharString name="Hdieresis">
          1677 666 -14 callsubr
          144 callsubr
          -51 callsubr
          143 callsubr
          -497 -1382 60 callsubr
          -74 callsubr
          -68 callsubr
          141 callsubr
          endchar
        </CharString>
        <CharString name="Hdotaccent">
          1677 840 -69 callsubr
          68 70 -56 51 -71 -70 -56 -51 -70 -68 56 -52 70 hvcurveto
          -322 -1379 60 callsubr
          -74 callsubr
          -68 callsubr
          141 callsubr
          endchar
        </CharString>
        <CharString name="Hdotbelow">
          -16 callsubr
          -74 callsubr
          -68 callsubr
          141 callsubr
          322 -370 -80 callsubr
          -100 callgsubr
        </CharString>
        <CharString name="I">
          735 518 -46 callsubr
          -104 callsubr
          -95 callsubr
          -84 callsubr
        </CharString>
        <CharString name="IAcyrillic">
          1432 141 1024 rmoveto
          -196 135 -115 173 -40 vhcurveto
          -203 -339 -122 -200 -32 -40 -68 -23 rlinecurve
          -71 331 vlineto
          370 632 rlineto
          179 -435 hlineto
          -85 -18 -19 -129 -18 vhcurveto
          -75 604 75 vlineto
          -135 19 -21 20 89 vvcurveto
          1038 vlineto
          89 21 21 135 17 vhcurveto
          76 -664 vlineto
          -365 -191 -166 -254 hvcurveto
          306 17 rmoveto
          196 114 109 223 7 vhcurveto
          120 4 0 -638 -120 2 rlineto
          -198 2 -139 117 201 vvcurveto
          endchar
        </CharString>
        <CharString name="IJ">
          1470 518 -46 callsubr
          -104 callsubr
          -95 callsubr
          63 callsubr
          734 62 rmoveto
          976 78 callsubr
          -104 callsubr
          -98 callgsubr
          -71 -148 -216 -143 vhcurveto
          32 -63 callgsubr
        </CharString>
        <CharString name="IJacute">
          1470 335 -36 callsubr
          -7 callsubr
          828 hmoveto
          338 283 rlineto
          8 -290 vlineto
          -142 -291 rlineto
          -457 -1348 -83 callsubr
          -104 callsubr
          -95 callsubr
          63 callsubr
          734 62 rmoveto
          976 78 callsubr
          -104 callsubr
          -98 callgsubr
          -71 -148 -216 -143 vhcurveto
          32 -63 callgsubr
        </CharString>
        <CharString name="IUcyrillic">
          2331 518 197 rmoveto
          494 228 vlineto
          -446 15 338 -273 391 hhcurveto
          452 294 328 424 1 hvcurveto
          463 1 -346 285 -399 hhcurveto
          -430 -287 -295 -392 -28 hvcurveto
          -230 462 hlineto
          85 130 callsubr
          -102 callsubr
          64 callsubr
          984 -119 rmoveto
          -264 -160 285 375 361 117 267 285 264 162 -285 -375 -1 hvcurveto
          -361 -118 -267 -285 vhcurveto
          endchar
        </CharString>
        <CharString name="Iacute">
          735 335 -36 callsubr
          -7 callsubr
          277 -1348 -83 callsubr
          -104 callsubr
          -95 callsubr
          -84 callsubr
        </CharString>
        <CharString name="Ibreve">
          735 367 1583 rmoveto
          186 101 -106 callgsubr
          -80 -6 hlineto
          -88 -79 -66 -124 -123 -79 66 88 vhcurveto
          6 -81 vlineto
          -3 -16 -1 -17 -18 vvcurveto
          -134 103 -128 184 vhcurveto
          151 -1380 -83 callsubr
          -104 callsubr
          -95 callsubr
          -84 callsubr
        </CharString>
        <CharString name="Icaron">
          735 590 -71 callsubr
          -39 callsubr
          -164 -1646 -83 callsubr
          -104 callsubr
          -95 callsubr
          -84 callsubr
        </CharString>
        <CharString name="Icircumflex">
          735 170 -81 callsubr
          -6 callsubr
          16 callsubr
          440 -1348 -83 callsubr
          -104 callsubr
          -95 callsubr
          -84 callsubr
        </CharString>
        <CharString name="Icyrillic">
          735 518 -46 callsubr
          -104 callsubr
          -95 callsubr
          -84 callsubr
        </CharString>
        <CharString name="Idblgrave">
          735 179 139 callsubr
          -82 -1348 -83 callsubr
          -104 callsubr
          -95 callsubr
          -84 callsubr
        </CharString>
        <CharString name="Idieresis">
          735 193 -14 callsubr
          -70 callsubr
          -51 callsubr
          67 callsubr
          -24 -1376 -83 callsubr
          -104 callsubr
          -95 callsubr
          -84 callsubr
        </CharString>
        <CharString name="Idieresisacute">
          735 667 -69 callgsubr
          141 -222 -21 callsubr
          20 callsubr
          -8 -1350 -83 callsubr
          -104 callsubr
          -95 callsubr
          -84 callsubr
        </CharString>
        <CharString name="Idotaccent">
          735 367 -69 callsubr
          -66 callsubr
          151 -1373 -83 callsubr
          -104 callsubr
          -95 callsubr
          -84 callsubr
        </CharString>
        <CharString name="Idotbelow">
          735 518 -46 callsubr
          -104 callsubr
          -95 callsubr
          63 callsubr
          -150 -376 -80 callsubr
          19 callsubr
        </CharString>
        <CharString name="Iecyrillic">
          1307 1179 1444 -94 callsubr
        </CharString>
        <CharString name="Igrave">
          735 424 1551 rmoveto
          94 -19 callgsubr
          434 -1630 -83 callsubr
          -104 callsubr
          -95 callsubr
          -84 callsubr
        </CharString>
        <CharString name="Ihookabove">
          735 397 161 callsubr
          121 -1685 -83 callsubr
          -104 callsubr
          -95 callsubr
          -84 callsubr
        </CharString>
        <CharString name="Iicyrillic">
          1702 518 197 rmoveto
          44 vlineto
          667 821 rlineto
          -865 182 callsubr
          -74 callsubr
          -44 vlineto
          -667 -820 rlineto
          864 vlineto
          85 130 callsubr
          -102 callsubr
          64 callsubr
          endchar
        </CharString>
        <CharString name="Iinvertedbreve">
          735 367 189 callsubr
          80 -71 callgsubr
          151 -1693 -83 callsubr
          -104 callsubr
          -95 callsubr
          -84 callsubr
        </CharString>
        <CharString name="Iishortcyrillic">
          1702 852 221 callsubr
          -334 -1384 rmoveto
          44 vlineto
          667 821 rlineto
          -865 182 callsubr
          -74 callsubr
          -44 vlineto
          -667 -820 rlineto
          864 vlineto
          85 130 callsubr
          -102 callsubr
          64 callsubr
          endchar
        </CharString>
        <CharString name="Imacron">
          735 85 -46 callgsubr
          433 -1543 -83 callsubr
          -104 callsubr
          -95 callsubr
          -84 callsubr
        </CharString>
        <CharString name="Iocyrillic">
          1307 503 6 callsubr
          54 51 67 68 -54 -70 callsubr
          328 -135 -94 callsubr
        </CharString>
        <CharString name="Iogonek">
          735 518 -46 callsubr
          -104 callsubr
          -95 callsubr
          280 241 callsubr
          92 79 39 55 34 vhcurveto
          74 vlineto
          -15 -16 -29 -12 -33 hhcurveto
          -72 -59 78 109 62 17 59 26 37 hvcurveto
          249 75 hlineto
          -137 18 -19 21 89 vvcurveto
          endchar
        </CharString>
        <CharString name="Iotadieresisgreek">
          735 193 -14 callsubr
          -70 callsubr
          -51 callsubr
          67 callsubr
          -24 -1376 -83 callsubr
          -104 callsubr
          -95 callsubr
          -84 callsubr
        </CharString>
        <CharString name="Iotagreek">
          735 518 -46 callsubr
          -104 callsubr
          -95 callsubr
          -84 callsubr
        </CharString>
        <CharString name="Iotatonosgreek">
          1063 846 -29 callgsubr
          -104 callsubr
          89 callsubr
          -18 -21 -138 -18 vhcurveto
          -75 614 74 callsubr
          -749 864 133 callsubr
          endchar
        </CharString>
        <CharString name="Itilde">
          735 490 168 callsubr
          28 -1359 -83 callsubr
          -104 callsubr
          -95 callsubr
          -84 callsubr
        </CharString>
        <CharString name="Itildebelow">
          735 518 -46 callsubr
          -104 callsubr
          -95 callsubr
          63 callsubr
          -31 -628 -35 callgsubr
          -2 -22 160 callsubr
          28 23 -65 callgsubr
        </CharString>
        <CharString name="J">
          735 518 265 rmoveto
          976 79 callsubr
          -614 -62 callsubr
          105 callsubr
        </CharString>
        <CharString name="Jacute">
          735 334 -55 callsubr
          277 -1286 rmoveto
          976 79 callsubr
          -614 -62 callsubr
          105 callsubr
        </CharString>
        <CharString name="Jcircumflex">
          735 170 1551 rmoveto
          210 145 209 -145 95 0 -212 -52 callsubr
          440 -1286 rmoveto
          976 79 callsubr
          -614 -62 callsubr
          105 callsubr
        </CharString>
        <CharString name="Jecyrillic">
          735 518 265 rmoveto
          976 79 callsubr
          -614 -62 callsubr
          105 callsubr
        </CharString>
        <CharString name="K">
          1444 518 197 2 callsubr
        </CharString>
        <CharString name="Kaacutecyrillic">
          1444 748 -55 callsubr
          -137 -1354 2 callsubr
        </CharString>
        <CharString name="Kacute">
          1444 748 -55 callsubr
          -137 -1354 2 callsubr
        </CharString>
        <CharString name="Kacyrillic">
          1444 518 197 2 callsubr
        </CharString>
        <CharString name="Kappagreek">
          1444 518 197 2 callsubr
        </CharString>
        <CharString name="Kcaron">
          1444 1004 -71 callsubr
          -55 callgsubr
          -578 -1652 2 callsubr
        </CharString>
        <CharString name="Kcommaaccent">
          148 callsubr
          266 -674 23 callsubr
          93 callsubr
          -50 callgsubr
          48 -26 -47 vvcurveto
          -49 -47 -27 -66 -57 -25 callgsubr
        </CharString>
        <CharString name="Kdotbelow">
          148 callsubr
          282 -370 -76 callsubr
        </CharString>
        <CharString name="Klinebelow">
          148 callsubr
          -9 -561 -49 callsubr
        </CharString>
        <CharString name="L">
          8 callsubr
          endchar
        </CharString>
        <CharString name="Lacute">
          1209 336 -55 callsubr
          905 -1551 rmoveto
          -18 callsubr
          3 callsubr
          endchar
        </CharString>
        <CharString name="Lambdagreek">
          1453 1253 271 rmoveto
          -416 1175 -220 0 -416 -1178 -54 -151 -37 -27 -109 -15 rlinecurve
          -75 448 75 vlineto
          -155 20 -13 40 46 141 rrcurveto
          303 916 310 -932 46 -138 -40 -28 -131 -19 rlinecurve
          -75 638 75 vlineto
          -105 15 -40 25 -55 156 rrcurveto
          endchar
        </CharString>
        <CharString name="Lcaron">
          1209 942 1128 rmoveto
          188 418 -217 0 -45 -418 rlineto
          280 -1128 rmoveto
          -18 callsubr
          3 callsubr
          endchar
        </CharString>
        <CharString name="Lcircumflexbelow">
          8 callsubr
          356 -463 -15 callsubr
          -60 callgsubr
        </CharString>
        <CharString name="Lcommaaccent">
          8 callsubr
          552 -477 -10 callsubr
          -83 -66 91 callsubr
          34 44 callsubr
        </CharString>
        <CharString name="Ldot">
          8 callsubr
          872 700 rmoveto
          83 66 60 82 82 -66 60 -83 -82 -67 -60 -82 -82 67 -60 82 hvcurveto
          endchar
        </CharString>
        <CharString name="Ldotbelow">
          8 callsubr
          568 -173 -76 callsubr
        </CharString>
        <CharString name="Ldotbelowmacron">
          1209 87 -53 callsubr
          1061 -1746 rmoveto
          -18 callsubr
          3 callsubr
          568 -173 -76 callsubr
        </CharString>
        <CharString name="Ljecyrillic">
          2116 24 callgsubr
          416 -1147 hlineto
          -90 -21 -21 -136 -17 vhcurveto
          -75 666 vlineto
          373 201 196 252 275 -219 155 -365 hvcurveto
          -198 350 hlineto
          97 21 26 148 18 vhcurveto
          75 -1189 -75 vlineto
          158 -19 29 -34 -8 callgsubr
          1709 312 rmoveto
          -207 -107 -131 -234 -8 vhcurveto
          -121 41 callgsubr
        </CharString>
        <CharString name="Llinebelow">
          8 callsubr
          276 -364 -33 callsubr
        </CharString>
        <CharString name="Lslash">
          1209 60 612 rmoveto
          157 44 rlineto
          -453 80 callsubr
          1088 vlineto
          -18 callsubr
          rrcurveto
          -186 -7 0 653 345 97 0 97 -345 -97 rlineto
          395 vlineto
          95 21 24 -54 callgsubr
          -488 vlineto
          -157 -44 rlineto
          endchar
        </CharString>
        <CharString name="M">
          1885 557 1444 34 callsubr
        </CharString>
        <CharString name="Macute">
          1885 908 -75 callsubr
          -257 -107 34 callsubr
        </CharString>
        <CharString name="Mdotaccent">
          1885 940 -69 callsubr
          -66 callsubr
          -383 -132 34 callsubr
        </CharString>
        <CharString name="Mdotbelow">
          1885 557 1444 rmoveto
          -488 -75 hlineto
          127 -18 24 -29 -3 -106 rrcurveto
          -28 -976 -5 -121 -17 -26 -133 -18 rlinecurve
          -75 432 75 vlineto
          -136 19 -17 26 1 123 rrcurveto
          3 993 457 -1236 155 0 89 282 346 954 25 -1037 2 -88 -20 -20 -130 -16 rlinecurve
          -75 603 75 vlineto
          -136 17 -18 20 -3 91 rrcurveto
          -27 1038 -2 90 22 21 135 17 rlinecurve
          75 vlineto
          -495 1 -365 -1098 rlineto
          -105 -520 -80 callsubr
          -99 callgsubr
        </CharString>
        <CharString name="Mugreek">
          1885 557 1444 34 callsubr
        </CharString>
        <CharString name="N">
          1544 -35 callsubr
          -11 callsubr
          endchar
        </CharString>
        <CharString name="Nacute">
          1544 764 -55 callsubr
          -171 -107 -23 callsubr
          -11 callsubr
          endchar
        </CharString>
        <CharString name="Ncaron">
          1544 1020 -71 callsubr
          -39 callsubr
          -612 -405 -23 callsubr
          -11 callsubr
          endchar
        </CharString>
        <CharString name="Ncircumflexbelow">
          1544 -35 callsubr
          -11 callsubr
          -708 -756 -15 callsubr
          -41 callsubr
        </CharString>
        <CharString name="Ncommaaccent">
          1544 -35 callsubr
          -11 callsubr
          -512 -770 23 callsubr
          93 callsubr
          -85 callgsubr
          -97 callgsubr
          76 callsubr
        </CharString>
        <CharString name="Ndotaccent">
          1544 797 -69 callsubr
          -66 callsubr
          -297 -132 -23 callsubr
          -11 callsubr
          endchar
        </CharString>
        <CharString name="Ndotbelow">
          1544 -35 callsubr
          -11 callsubr
          -496 -466 172 callsubr
        </CharString>
        <CharString name="Ngrave">
          1544 854 -76 callgsubr
          -13 -389 -23 callsubr
          -11 callsubr
          endchar
        </CharString>
        <CharString name="Njecyrillic">
          2228 518 197 rmoveto
          536 549 -536 vlineto
          -85 -19 -20 -127 -17 vhcurveto
          -75 657 vlineto
          373 199 185 238 259 -218 145 -365 hvcurveto
          -199 401 hlineto
          97 22 26 148 18 vhcurveto
          75 -617 -76 vlineto
          127 -17 19 -19 -85 vvcurveto
          -420 -549 420 vlineto
          85 130 callsubr
          -102 callsubr
          64 callsubr
          1313 218 rmoveto
          -193 -107 -121 -233 -8 vhcurveto
          -123 -3 0 644 113 -1 rlineto
          222 -2 128 -116 -200 vvcurveto
          endchar
        </CharString>
        <CharString name="Nlinebelow">
          1544 -35 callsubr
          -11 callsubr
          -788 -657 -33 callsubr
        </CharString>
        <CharString name="Ntilde">
          1544 919 -45 callgsubr
          -85 hlineto
          -91 13 callgsubr
          85 hlineto
          91 4 22 87 callgsubr
          -22 58 hhcurveto
          -419 -118 -23 callsubr
          -11 callsubr
          endchar
        </CharString>
        <CharString name="Nugreek">
          1544 -35 callsubr
          -11 callsubr
          endchar
        </CharString>
        <CharString name="O">
          -4 callsubr
          50 callsubr
          -106 callsubr
          -101 callsubr
        </CharString>
        <CharString name="OE">
          2113 95 715 rmoveto
          -420 322 -322 434 vhcurveto
          155 101 27 146 hhcurveto
          779 hlineto
          14 422 rlineto
          -70 hlineto
          -58 -273 -66 -43 -273 -10 rrcurveto
          -238 -9 0 608 237 -2 93 -2 26 -38 29 -163 rlinecurve
          66 497 -66 hlineto
          -33 -165 -24 -36 -91 -2 rrcurveto
          -237 -2 0 575 221 -8 246 -10 72 -50 54 -223 rlinecurve
          70 hlineto
          -11 378 rlineto
          -736 hlineto
          -157 -76 27 -156 hhcurveto
          -470 -303 -325 -431 hvcurveto
          325 9 rmoveto
          367 167 277 306 55 51 -8 -17 41 vhcurveto
          -1244 vlineto
          -16 -45 -54 -7 -56 hhcurveto
          -290 -175 276 372 hvcurveto
          endchar
        </CharString>
        <CharString name="Oacute">
          1693 809 -75 callsubr
          -620 -830 -105 callsubr
          -106 callsubr
          -101 callsubr
        </CharString>
        <CharString name="Obreve">
          1693 842 56 callsubr
          -2 17 -3 16 hvcurveto
          -80 -6 hlineto
          -88 -79 -66 -124 -123 -79 66 88 vhcurveto
          6 -81 vlineto
          -3 -16 -1 -40 callgsubr
          -747 -862 -105 callsubr
          -106 callsubr
          -101 callsubr
        </CharString>
        <CharString name="Ocaron">
          1693 1064 -71 callsubr
          212 -33 callgsubr
          -1061 -1128 -105 callsubr
          -106 callsubr
          -101 callsubr
        </CharString>
        <CharString name="Ocircumflex">
          1693 644 -81 callsubr
          -48 callsubr
          -52 callsubr
          -458 -830 -105 callsubr
          -106 callsubr
          -101 callsubr
        </CharString>
        <CharString name="Ocircumflexacute">
          1693 1141 1835 -37 callgsubr
          1 -261 rmoveto
          299 88 71 callgsubr
          -448 -840 -105 callsubr
          -106 callsubr
          -101 callsubr
        </CharString>
        <CharString name="Ocircumflexdotbelow">
          1693 644 -81 callsubr
          -48 callsubr
          -52 callsubr
          -458 -830 -105 callsubr
          -106 callsubr
          -404 83 callsubr
          70 callsubr
          289 41 callsubr
          423 -911 -80 callsubr
          -100 callgsubr
        </CharString>
        <CharString name="Ocircumflexgrave">
          1693 542 211 callsubr
          -448 -840 -105 callsubr
          -106 callsubr
          -101 callsubr
        </CharString>
        <CharString name="Ocircumflexhookabove">
          1693 1090 1942 rmoveto
          -77 232 callsubr
          -104 vhcurveto
          -547 -448 rmoveto
          299 88 71 callgsubr
          -448 -840 -105 callsubr
          -106 callsubr
          -101 callsubr
        </CharString>
        <CharString name="Ocircumflextilde">
          1693 967 1781 9 callsubr
          6 13 -40 hvcurveto
          -33 10 rlineto
          15 -46 235 callsubr
          -104 callgsubr
          -11 rlineto
          -15 45 44 155 callsubr
          -448 -840 -105 callsubr
          -106 callsubr
          -101 callsubr
        </CharString>
        <CharString name="Ocyrillic">
          -4 callsubr
          50 callsubr
          -106 callsubr
          -101 callsubr
        </CharString>
        <CharString name="Odblgrave">
          1693 653 139 callsubr
          -979 -830 -105 callsubr
          -106 callsubr
          -101 callsubr
        </CharString>
        <CharString name="Odieresis">
          1693 668 6 callsubr
          54 51 67 68 -54 -70 callsubr
          -921 -858 -105 callsubr
          -106 callsubr
          -101 callsubr
        </CharString>
        <CharString name="Odieresismacron">
          1693 542 82 callsubr
          141 -386 -21 callsubr
          -55 -44 -37 -49 -50 44 -36 55 hvcurveto
          -905 -832 -105 callsubr
          -106 callsubr
          -101 callsubr
        </CharString>
        <CharString name="Odotaccent">
          1693 842 53 callsubr
          -747 -855 -105 callsubr
          -106 callsubr
          -101 callsubr
        </CharString>
        <CharString name="Odotaccentmacron">
          1693 542 1806 94 callsubr
          300 -370 rmoveto
          60 48 40 54 54 -48 40 -60 -61 -47 -40 -54 -54 47 -40 61 hvcurveto
          -747 -824 -105 callsubr
          -106 callsubr
          -101 callsubr
        </CharString>
        <CharString name="Odotbelow">
          -4 callsubr
          50 callsubr
          -106 callsubr
          -404 83 callsubr
          70 callsubr
          289 41 callsubr
          423 -911 -80 callsubr
          -100 callgsubr
        </CharString>
        <CharString name="Ograve">
          1693 899 71 callsubr
          -463 -1112 -105 callsubr
          -106 callsubr
          -101 callsubr
        </CharString>
        <CharString name="Ohookabove">
          1693 871 1888 rmoveto
          -101 -75 -44 -48 -37 hvcurveto
          -57 vlineto
          20 26 47 17 51 hhcurveto
          65 39 -28 -44 -46 -40 184 callsubr
          -776 -1167 -105 callsubr
          -106 callsubr
          -101 callsubr
        </CharString>
        <CharString name="Ohorn">
          1714 95 721 -105 callsubr
          35 callsubr
        </CharString>
        <CharString name="Ohornacute">
          1714 812 -75 callsubr
          -623 -830 -105 callsubr
          35 callsubr
        </CharString>
        <CharString name="Ohorndotbelow">
          1714 95 721 -105 callsubr
          303 -156 235 -226 120 vhcurveto
          -6 30 32 -4 33 hhcurveto
          173 120 61 129 hvcurveto
          1 97 -71 91 -95 50 rrcurveto
          -74 hlineto
          20 -27 16 -59 -52 vvcurveto
          -125 -75 -89 -151 vhcurveto
          -96 -102 24 -131 185 callsubr
          41 callsubr
          419 -911 -76 callsubr
        </CharString>
        <CharString name="Ohorngrave">
          1714 902 71 callsubr
          -466 -1112 -105 callsubr
          35 callsubr
        </CharString>
        <CharString name="Ohornhookabove">
          1714 874 183 callsubr
          39 -28 -44 -46 -40 184 callsubr
          -779 -1167 -105 callsubr
          35 callsubr
        </CharString>
        <CharString name="Ohorntilde">
          1714 967 124 callsubr
          -4 -22 75 callsubr
          88 callgsubr
          107 callgsubr
          -872 -841 -105 callsubr
          35 callsubr
        </CharString>
        <CharString name="Ohungarumlaut">
          1693 -16 callgsubr
          -1219 -1121 -105 callsubr
          -106 callsubr
          -101 callsubr
        </CharString>
        <CharString name="Oinvertedbreve">
          1693 841 189 callsubr
          80 vlineto
          3 16 2 17 18 vvcurveto
          134 -103 128 -185 vhcurveto
          -746 -1175 -105 callsubr
          -106 callsubr
          -101 callsubr
        </CharString>
        <CharString name="Omacron">
          1693 560 -53 callsubr
          -465 -1025 -105 callsubr
          -106 callsubr
          -101 callsubr
        </CharString>
        <CharString name="Omacronacute">
          1693 -95 callgsubr
          -190 vmoveto
          599 109 -599 hlineto
          -447 -973 -105 callsubr
          -106 callsubr
          -101 callsubr
        </CharString>
        <CharString name="Omacrongrave">
          1693 542 -70 callgsubr
          -410 vmoveto
          599 109 -599 hlineto
          -447 -973 -105 callsubr
          -106 callsubr
          -101 callsubr
        </CharString>
        <CharString name="Omegagreek">
          1589 82 19 callgsubr
          257 264 3 callgsubr
          -61 hlineto
          -67 214 callsubr
          endchar
        </CharString>
        <CharString name="Omegatonosgreek">
          1759 251 19 callgsubr
          258 263 3 callgsubr
          -60 hlineto
          -68 214 callsubr
          -103 683 133 callsubr
          endchar
        </CharString>
        <CharString name="Omicrongreek">
          -4 callsubr
          50 callsubr
          -106 callsubr
          -101 callsubr
        </CharString>
        <CharString name="Omicrontonosgreek">
          1799 201 721 rmoveto
          -459 347 -290 404 456 297 332 420 459 -349 289 -403 -456 -296 -331 -420 vhcurveto
          -104 346 133 callsubr
          533 -329 rmoveto
          357 119 271 289 265 162 -289 -371 -356 -118 -272 -289 -266 -162 290 370 vhcurveto
          endchar
        </CharString>
        <CharString name="Oogonek">
          -4 callsubr
          196 callsubr
        </CharString>
        <CharString name="Oogonekmacron">
          1693 560 -53 callsubr
          -465 -1025 rmoveto
          196 callsubr
        </CharString>
        <CharString name="Oslash">
          -4 callsubr
          191 callsubr
        </CharString>
        <CharString name="Oslashacute">
          1693 809 -75 callsubr
          -620 -830 rmoveto
          191 callsubr
        </CharString>
        <CharString name="Otilde">
          1693 964 124 callsubr
          -4 -22 75 callsubr
          -30 21 rlineto
          36 -52 -44 23 -59 hhcurveto
          -101 90 callgsubr
          107 callgsubr
          -869 -841 -105 callsubr
          -106 callsubr
          -101 callsubr
        </CharString>
        <CharString name="Otildeacute">
          1693 -95 callgsubr
          425 -219 9 callsubr
          131 callsubr
          -104 callgsubr
          -88 callgsubr
          -872 -835 -105 callsubr
          -106 callsubr
          -101 callsubr
        </CharString>
        <CharString name="Otildedieresis">
          1693 220 callsubr
          -33 -243 9 callsubr
          131 callsubr
          -104 callgsubr
          -88 callgsubr
          -872 -835 -105 callsubr
          -106 callsubr
          -101 callsubr
        </CharString>
        <CharString name="Otildemacron">
          1693 542 82 callsubr
          425 -383 9 callsubr
          131 callsubr
          -104 callgsubr
          -88 callgsubr
          -872 -835 -105 callsubr
          -106 callsubr
          -101 callsubr
        </CharString>
        <CharString name="P">
          1386 1303 1017 36 callsubr
        </CharString>
        <CharString name="Pacute">
          1386 634 -75 callsubr
          763 -534 36 callsubr
        </CharString>
        <CharString name="Pdotaccent">
          1386 667 53 callsubr
          636 -559 36 callsubr
        </CharString>
        <CharString name="Pecyrillic">
          1667 1450 -29 callgsubr
          -1547 -62 callsubr
          -102 callsubr
          605 75 vlineto
          -127 18 -20 19 85 vvcurveto
          1153 631 -1153 vlineto
          -85 -20 -19 -127 -18 vhcurveto
          -75 605 74 callsubr
          endchar
        </CharString>
        <CharString name="Phigreek">
          1879 80 719 rmoveto
          -320 276 -175 442 -13 vhcurveto
          -92 -21 -26 -148 -18 vhcurveto
          -75 621 75 vlineto
          -144 17 -24 26 -1 93 rrcurveto
          424 14 294 174 324 vvcurveto
          321 -285 174 -433 13 vhcurveto
          94 22 26 147 18 vhcurveto
          75 -621 -75 vlineto
          146 -17 22 -26 1 -95 rrcurveto
          -415 -13 -303 -172 -327 vvcurveto
          1413 1 rmoveto
          -246 -160 -151 -252 -19 vhcurveto
          835 vlineto
          266 -18 146 -152 -249 vvcurveto
          -1106 6 rmoveto
          242 156 153 255 18 vhcurveto
          -835 vlineto
          -261 18 -150 151 253 vvcurveto
          endchar
        </CharString>
        <CharString name="Pigreek">
          1638 1421 -46 callsubr
          -1517 -62 callsubr
          -102 callsubr
          64 callsubr
          1153 602 -1153 vlineto
          -85 -20 -20 -127 -17 vhcurveto
          -75 604 75 vlineto
          -137 18 -19 21 89 vvcurveto
          endchar
        </CharString>
        <CharString name="Psigreek">
          1824 1053 217 rmoveto
          285 vlineto
          329 13 176 128 49 333 rrcurveto
          32 222 18 123 33 31 94 5 rlinecurve
          75 vlineto
          5 -30 -59 7 -56 hhcurveto
          -158 -80 -61 -197 -30 hvcurveto
          -35 -231 -36 -232 -71 -107 -176 -20 rlinecurve
          651 vlineto
          86 20 19 127 16 vhcurveto
          76 -577 -76 vlineto
          127 -16 20 -19 -86 vvcurveto
          -651 vlineto
          -176 20 -71 107 -35 232 -35 231 rcurveline
          197 -30 -81 61 -157 hhcurveto
          -57 -59 -7 -5 -30 hvcurveto
          -75 vlineto
          95 -5 32 -31 18 -123 rrcurveto
          32 -222 49 -333 177 -128 328 -13 rlinecurve
          -285 vlineto
          -98 -21 -26 -147 -18 vhcurveto
          -75 620 17 callsubr
          endchar
        </CharString>
        <CharString name="Q">
          -4 callsubr
          -429 302 -280 368 -36 vhcurveto
          140 -129 rlineto
          -185 203 98 -37 134 hhcurveto
          102 101 28 42 78 hvcurveto
          69 vlineto
          -121 -13 -108 45 -191 153 -83 68 rcurveline
          298 103 183 275 329 vvcurveto
          -106 callsubr
          -402 -457 -297 -331 -420 70 callsubr
          288 266 163 -289 -371 vhcurveto
          -356 -1 -119 -272 -287 hhcurveto
          -267 -162 290 370 hvcurveto
          endchar
        </CharString>
        <CharString name="R">
          1411 1284 1052 150 callsubr
          endchar
        </CharString>
        <CharString name="Racute">
          1411 642 -55 callsubr
          735 -499 150 callsubr
          endchar
        </CharString>
        <CharString name="Rcaron">
          1411 898 -71 callsubr
          -55 callgsubr
          294 -797 150 callsubr
          endchar
        </CharString>
        <CharString name="Rcommaaccent">
          -62 callgsubr
          -235 -1509 rmoveto
          150 113 callsubr
          -97 callgsubr
          -1 -70 rlineto
          -36 39 75 -29 89 hhcurveto
          endchar
        </CharString>
        <CharString name="Rdblgrave">
          1411 487 1842 rmoveto
          -253 -9 hlineto
          292 -282 rlineto
          102 hlineto
          225 291 rmoveto
          -232 -9 hlineto
          190 -282 rlineto
          97 hlineto
          376 -499 150 callsubr
          endchar
        </CharString>
        <CharString name="Rdotaccent">
          1411 675 1576 188 callsubr
          609 -524 150 callsubr
          endchar
        </CharString>
        <CharString name="Rdotbelow">
          -62 callgsubr
          -220 -1205 -80 callsubr
          19 callsubr
        </CharString>
        <CharString name="Rdotbelowmacron">
          1411 393 -53 callsubr
          891 -694 150 callsubr
          -220 -1205 -80 callsubr
          19 callsubr
        </CharString>
        <CharString name="Rhogreek">
          1386 1303 1017 36 callsubr
        </CharString>
        <CharString name="Rinvertedbreve">
          1411 675 1896 rmoveto
          -186 -101 -30 callgsubr
          23 callgsubr
          609 -844 150 callsubr
          endchar
        </CharString>
        <CharString name="Rlinebelow">
          -62 callgsubr
          -511 -1396 -33 callsubr
        </CharString>
        <CharString name="S">
          1240 593 -28 95 callsubr
          endchar
        </CharString>
        <CharString name="Sacute">
          1240 617 -75 callsubr
          70 -1579 95 callsubr
          endchar
        </CharString>
        <CharString name="Sacutedotaccent">
          1240 650 1762 rmoveto
          -58 callgsubr
          47 -40 61 77 callgsubr
          242 -1566 95 callsubr
          endchar
        </CharString>
        <CharString name="Scaron">
          1240 873 180 callsubr
          -371 -1877 95 callsubr
          endchar
        </CharString>
        <CharString name="Scarondotaccent">
          1240 650 1783 rmoveto
          60 48 40 54 53 -48 40 -60 -60 -48 -40 -53 -54 47 -40 61 8 callgsubr
          -364 -1730 95 callsubr
          endchar
        </CharString>
        <CharString name="Scedilla">
          1240 574 -477 rmoveto
          131 122 66 121 121 -22 callgsubr
          61 76 rlineto
          283 19 218 163 259 vvcurveto
          210 -123 143 -267 87 vhcurveto
          -120 39 rlineto
          -166 55 -90 70 127 vvcurveto
          129 94 91 178 179 132 -111 -217 45 vhcurveto
          71 hlineto
          -11 330 rlineto
          57 -77 -152 47 -187 hhcurveto
          -335 -217 -167 -253 -206 137 -142 251 -80 hvcurveto
          120 -39 rlineto
          177 -58 81 -83 -131 vvcurveto
          -139 -109 -96 -170 -198 -168 118 237 -52 vhcurveto
          -71 hlineto
          12 -345 88 -61 163 -47 188 -7 rlinecurve
          -104 -128 -66 callgsubr
          64 callgsubr
          endchar
        </CharString>
        <CharString name="Schwa">
          1515 700 -28 rmoveto
          437 284 295 453 489 -314 263 -436 -225 -184 -43 -62 -91 hvcurveto
          -11 -350 rlineto
          71 hlineto
          226 53 141 124 220 hhcurveto
          290 160 -237 -415 hvcurveto
          -7 0 -7 -6 vvcurveto
          -1018 hlineto
          -5 -31 -4 -39 -37 vvcurveto
          -362 215 -254 417 vhcurveto
          -337 591 rmoveto
          13 0 14 1 13 vhcurveto
          727 2 rlineto
          -325 -23 -126 -202 -237 hhcurveto
          -251 -91 217 268 hvcurveto
          endchar
        </CharString>
        <CharString name="Scircumflex">
          1240 452 -81 callsubr
          -48 callsubr
          -52 callsubr
          232 -1579 95 callsubr
          endchar
        </CharString>
        <CharString name="Scommaaccent">
          1240 593 -28 95 callsubr
          -3 -449 -10 callsubr
          -83 -66 91 callsubr
          34 44 callsubr
        </CharString>
        <CharString name="Sdotaccent">
          1240 650 135 callsubr
          -70 -57 -51 -69 -69 56 -52 71 hvcurveto
          -57 -1604 95 callsubr
          endchar
        </CharString>
        <CharString name="Sdotbelow">
          1240 593 -28 95 callsubr
          13 -145 -76 callsubr
        </CharString>
        <CharString name="Sdotbelowdotaccent">
          1240 650 135 callsubr
          -70 -57 -51 -69 -69 56 -52 71 hvcurveto
          -57 -1604 95 callsubr
          13 -145 -76 callsubr
        </CharString>
        <CharString name="Shacyrillic">
          2376 2159 -29 callgsubr
          -605 -76 vlineto
          -28 callgsubr
          47 callgsubr
          -28 callgsubr
          -519 1154 vlineto
          84 130 callsubr
          -102 callsubr
          2256 74 callsubr
          endchar
        </CharString>
        <CharString name="Shchacyrillic">
          2406 2352 29 callgsubr
          -28 callgsubr
          47 callgsubr
          127 -17 20 -19 -84 vvcurveto
          -1154 -519 1154 vlineto
          84 130 callsubr
          -102 callsubr
          1906 vlineto
          192 41 -33 -283 81 hvcurveto
          80 hlineto
          endchar
        </CharString>
        <CharString name="Sigmagreek">
          1289 1154 1444 rmoveto
          -1099 -71 hlineto
          488 -678 -484 -544 rlineto
          -151 1134 vlineto
          14 479 rlineto
          -78 hlineto
          -234 -52 -70 -36 -279 hhcurveto
          -492 hlineto
          552 571 0 28 -386 550 312 -10 265 -9 62 -59 54 -212 rlinecurve
          71 hlineto
          endchar
        </CharString>
        <CharString name="Softsigncyrillic">
          1378 1300 190 callsubr
          97 21 26 -54 callgsubr
          -102 callsubr
          666 vlineto
          373 201 196 252 hvcurveto
          -320 -9 -11 callgsubr
        </CharString>
        <CharString name="T">
          -22 callsubr
          endchar
        </CharString>
        <CharString name="Taugreek">
          -22 callsubr
          endchar
        </CharString>
        <CharString name="Tbar">
          1379 254 695 rmoveto
          285 -479 hlineto
          -97 -21 -27 -148 -17 vhcurveto
          -75 639 75 vlineto
          -148 17 -21 27 97 vvcurveto
          479 285 90 -285 572 240 callsubr
          -12 378 -1262 0 49 callsubr
          -572 -285 vlineto
          endchar
        </CharString>
        <CharString name="Tcaron">
          1379 912 -71 callsubr
          -39 callsubr
          317 -405 rmoveto
          -1262 hlineto
          49 callsubr
          134 callsubr
          639 -103 callgsubr
          -94 callgsubr
          endchar
        </CharString>
        <CharString name="Tcedilla">
          1379 658 -477 rmoveto
          131 122 -73 callgsubr
          80 102 rlineto
          260 75 hlineto
          -148 18 -21 26 98 vvcurveto
          -94 callgsubr
          -12 378 -1262 0 49 callsubr
          134 callsubr
          284 vlineto
          -123 -155 rlineto
          -65 vlineto
          3 10 18 3 17 hhcurveto
          69 51 -79 callgsubr
          76 -28 93 hhcurveto
          endchar
        </CharString>
        <CharString name="Tcircumflexbelow">
          -22 callsubr
          -856 -1529 -96 callgsubr
          91 0 -41 callsubr
        </CharString>
        <CharString name="Tcommaaccent">
          -22 callsubr
          -659 -1543 23 callsubr
          93 callsubr
          -50 callgsubr
          48 -26 -47 vvcurveto
          -49 -47 -27 -66 -57 -25 callgsubr
        </CharString>
        <CharString name="Tdotaccent">
          1379 689 -69 callsubr
          -66 callsubr
          632 -132 rmoveto
          -1262 hlineto
          49 callsubr
          134 callsubr
          639 -103 callgsubr
          -94 callgsubr
          endchar
        </CharString>
        <CharString name="Tdotbelow">
          -22 callsubr
          -644 -1239 -80 callsubr
          19 callsubr
        </CharString>
        <CharString name="Tecyrillic">
          -22 callsubr
          endchar
        </CharString>
        <CharString name="Thetagreek">
          1700 849 -28 rmoveto
          458 299 331 421 459 -350 289 -404 -459 -299 -331 -421 -459 350 -289 405 hvcurveto
          11 98 rmoveto
          -281 -169 287 381 368 126 268 304 281 169 -286 -382 -368 -126 -268 -304 hvcurveto
          -297 404 rmoveto
          61 hlineto
          146 24 37 45 116 hhcurveto
          95 hlineto
          115 39 -45 -146 23 hvcurveto
          61 481 -61 hlineto
          -145 -23 -39 -44 -115 hhcurveto
          -95 hlineto
          -116 -37 44 145 -24 hvcurveto
          -61 hlineto
          endchar
        </CharString>
        <CharString name="Thorn">
          1365 1298 744 rmoveto
          269 -241 123 -377 vhcurveto
          -162 92 hlineto
          97 21 26 148 18 vhcurveto
          75 -627 -75 vlineto
          138 -18 19 -21 -88 vvcurveto
          -1040 vlineto
          -88 -19 -21 -138 -18 vhcurveto
          -75 -27 callsubr
          111 vlineto
          162 1 rlineto
          361 257 141 274 hvcurveto
          -320 -18 rmoveto
          -197 -134 -103 -242 -8 vhcurveto
          -84 -2 0 632 84 -2 rlineto
          246 -8 130 -119 -193 vvcurveto
          endchar
        </CharString>
        <CharString name="Tlinebelow">
          -22 callsubr
          -935 -1430 -49 callsubr
        </CharString>
        <CharString name="Tsecyrillic">
          1697 1643 29 callgsubr
          127 -17 52 callgsubr
          17 vhcurveto
          76 -605 -62 callsubr
          -102 callsubr
          1197 vlineto
          192 41 -33 -283 81 hvcurveto
          80 hlineto
          endchar
        </CharString>
        <CharString name="Tshecyrillic">
          1846 217 callsubr
          446 vlineto
          38 61 90 19 103 hhcurveto
          191 99 -107 -218 hvcurveto
          -383 449 75 vlineto
          -128 18 -20 19 85 vvcurveto
          193 vlineto
          319 -202 123 -284 -154 -128 -36 -49 -77 vhcurveto
          608 94 callgsubr
        </CharString>
        <CharString name="U">
          1554 183 1247 -88 callsubr
        </CharString>
        <CharString name="Uacute">
          1554 809 -75 callsubr
          -532 -304 -88 callsubr
        </CharString>
        <CharString name="Ubreve">
          1554 842 56 callsubr
          -2 17 -2 16 hvcurveto
          -81 -6 hlineto
          -88 -79 -66 -124 -123 -79 66 88 vhcurveto
          6 -81 vlineto
          -3 -16 -1 -40 callgsubr
          -659 -336 -88 callsubr
        </CharString>
        <CharString name="Ubrevecyrillic">
          1459 808 221 callsubr
          -566 -1456 197 callsubr
        </CharString>
        <CharString name="Ucaron">
          1554 1064 1849 rmoveto
          -210 -145 -209 145 -94 0 211 -33 callgsubr
          -973 -602 -88 callsubr
        </CharString>
        <CharString name="Ucircumflex">
          1554 644 -81 callsubr
          -48 callsubr
          -52 callsubr
          -370 -304 -88 callsubr
        </CharString>
        <CharString name="Ucircumflexbelow">
          100 callsubr
          422 -1710 -96 callgsubr
          91 0 -41 callsubr
        </CharString>
        <CharString name="Ucyrillic">
          1459 242 125 197 callsubr
        </CharString>
        <CharString name="Udblgrave">
          1554 653 139 callsubr
          -891 -304 -88 callsubr
        </CharString>
        <CharString name="Udieresis">
          1554 668 6 callsubr
          54 51 67 68 -54 -70 callsubr
          -833 -332 -88 callsubr
        </CharString>
        <CharString name="Udieresisacute">
          1554 -95 callgsubr
          141 -222 -21 callsubr
          -55 -44 -37 -49 -50 44 -36 55 hvcurveto
          -817 -306 -88 callsubr
        </CharString>
        <CharString name="Udieresisbelow">
          100 callsubr
          418 -1661 rmoveto
          87 callsubr
          77 callsubr
          433 hmoveto
          87 callsubr
          77 callsubr
          endchar
        </CharString>
        <CharString name="Udieresiscaron">
          1554 1141 1993 rmoveto
          -300 -85 -299 85 0 -65 274 -151 52 0 272 151 rlineto
          -457 -375 -21 callsubr
          -55 -44 -37 -49 -50 44 -36 55 hvcurveto
          -817 -306 -88 callsubr
        </CharString>
        <CharString name="Udieresisgrave">
          1554 542 -70 callgsubr
          141 -442 -21 callsubr
          -55 -44 -37 -49 -50 44 -36 55 hvcurveto
          -817 -306 -88 callsubr
        </CharString>
        <CharString name="Udieresismacron">
          1554 542 82 callsubr
          141 -386 -21 callsubr
          -55 -44 -37 -49 -50 44 -36 55 hvcurveto
          -817 -306 -88 callsubr
        </CharString>
        <CharString name="Udotbelow">
          100 callsubr
          634 -1420 -80 callsubr
          19 callsubr
        </CharString>
        <CharString name="Ugrave">
          1554 899 71 callsubr
          -375 -586 -88 callsubr
        </CharString>
        <CharString name="Uhookabove">
          1554 871 183 callsubr
          40 -28 -44 -46 -41 184 callsubr
          -688 -641 -88 callsubr
        </CharString>
        <CharString name="Uhorn">
          1675 186 539 33 callsubr
        </CharString>
        <CharString name="Uhornacute">
          1675 827 -55 callsubr
          -548 -1012 33 callsubr
        </CharString>
        <CharString name="Uhorndotbelow">
          1675 186 539 rmoveto
          -386 279 -181 315 361 225 222 353 3 vhcurveto
          7 844 rlineto
          -2 16 16 -1 15 hhcurveto
          155 87 66 112 94 -66 91 -91 49 hvcurveto
          -75 hlineto
          21 -27 16 -56 -55 vvcurveto
          -120 -1 -80 -98 -189 hhcurveto
          -115 -75 hlineto
          152 -22 17 -21 -107 vvcurveto
          5 -659 rlineto
          -281 2 -147 -153 -236 hhcurveto
          -226 -165 141 288 hvcurveto
          679 vlineto
          93 21 20 148 22 vhcurveto
          75 -623 -75 vlineto
          132 -21 21 -21 -93 vvcurveto
          637 -1407 -80 callsubr
          19 callsubr
        </CharString>
        <CharString name="Uhorngrave">
          1675 917 -76 callgsubr
          -390 -1294 33 callsubr
        </CharString>
        <CharString name="Uhornhookabove">
          1675 889 1888 rmoveto
          -101 -23 callgsubr
          17 52 hhcurveto
          65 39 -28 -44 -46 -41 -41 -87 -56 hvcurveto
          85 callgsubr
          -703 -1349 33 callsubr
        </CharString>
        <CharString name="Uhorntilde">
          1675 982 -45 callgsubr
          -85 hlineto
          -91 13 callgsubr
          85 hlineto
          91 4 22 87 callgsubr
          -22 58 hhcurveto
          -796 -1023 33 callsubr
        </CharString>
        <CharString name="Uhungarumlaut">
          1554 -16 callgsubr
          -1131 -595 -88 callsubr
        </CharString>
        <CharString name="Uinvertedbreve">
          1554 841 189 callsubr
          81 vlineto
          2 16 2 17 18 vvcurveto
          134 -103 128 -185 vhcurveto
          -658 -649 -88 callsubr
        </CharString>
        <CharString name="Umacron">
          1554 560 -53 callsubr
          -377 -499 -88 callsubr
        </CharString>
        <CharString name="Umacrondieresis">
          1554 220 callsubr
          -436 -214 rmoveto
          555 109 -555 hlineto
          -381 -447 -88 callsubr
        </CharString>
        <CharString name="Uogonek">
          1554 835 -486 rmoveto
          92 79 39 55 34 hvcurveto
          74 vlineto
          -15 -16 -29 -12 -33 hhcurveto
          -72 -59 74 105 55 14 52 23 36 hvcurveto
          312 35 182 217 4 323 rrcurveto
          7 651 1 121 19 27 130 17 rlinecurve
          76 -435 -75 vlineto
          142 -18 19 -28 1 158 callsubr
          -18 20 -19 -85 vvcurveto
          -704 vlineto
          -387 275 -182 314 -2 vhcurveto
          -89 -72 -62 -95 -95 vvcurveto
          -120 93 -76 121 vhcurveto
          endchar
        </CharString>
        <CharString name="Upsilondieresisgreek">
          1397 601 -14 callsubr
          -70 callsubr
          -51 callsubr
          51 -67 -67 -55 -51 -68 -67 54 -51 68 hvcurveto
          -726 -403 -73 callsubr
        </CharString>
        <CharString name="Upsilongreek">
          1397 224 1176 -73 callsubr
        </CharString>
        <CharString name="Upsilontonosgreek">
          1763 590 1176 rmoveto
          326 -543 rlineto
          -416 vlineto
          -98 -21 -26 -148 -18 vhcurveto
          -75 639 17 callsubr
          430 vlineto
          311 514 99 -59 callgsubr
          147 -18 9 -37 -83 -151 rrcurveto
          -236 -427 -253 -81 callgsubr
          107 -17 33 -28 90 -148 rrcurveto
          -493 -109 133 callsubr
          endchar
        </CharString>
        <CharString name="Uring">
          1554 581 1745 rmoveto
          -113 114 -76 147 146 114 75 114 112 -114 77 -146 -147 -3 callgsubr
          -565 -498 -88 callsubr
        </CharString>
        <CharString name="Utilde">
          1554 964 124 callsubr
          -3 -23 75 callsubr
          88 callgsubr
          24 -13 -23 33 hvcurveto
          29 -21 rlineto
          -37 52 44 -22 59 hhcurveto
          -781 -315 -88 callsubr
        </CharString>
        <CharString name="Utildeacute">
          1554 -95 callgsubr
          425 -219 9 callsubr
          131 callsubr
          1 27 19 44 hhcurveto
          27 28 -7 -12 39 hvcurveto
          34 -88 callgsubr
          -784 -309 -88 callsubr
        </CharString>
        <CharString name="Utildebelow">
          100 callsubr
          753 -1672 -35 callgsubr
          -2 -22 160 callsubr
          28 23 -65 callgsubr
        </CharString>
        <CharString name="V">
          98 callgsubr
          endchar
        </CharString>
        <CharString name="Vdotbelow">
          98 callgsubr
          539 -1340 -80 callsubr
          -99 callgsubr
        </CharString>
        <CharString name="Vecyrillic">
          1431 1347 421 101 callsubr
        </CharString>
        <CharString name="Vtilde">
          1457 920 -45 callgsubr
          -86 hlineto
          -91 -3 -22 -31 -41 hhcurveto
          -29 -23 13 23 -33 hvcurveto
          -30 21 rlineto
          36 -52 -45 23 -58 hhcurveto
          -102 -79 -77 -201 4 hvcurveto
          85 hlineto
          91 3 23 87 callgsubr
          -22 58 hhcurveto
          -725 -395 rmoveto
          209 callsubr
          endchar
        </CharString>
        <CharString name="W">
          2229 191 1167 1 callsubr
        </CharString>
        <CharString name="Wacute">
          2229 1163 -75 callsubr
          -878 -384 1 callsubr
        </CharString>
        <CharString name="Wcircumflex">
          2229 998 -81 callsubr
          -48 callsubr
          -52 callsubr
          -716 -384 1 callsubr
        </CharString>
        <CharString name="Wdieresis">
          2229 1022 6 callsubr
          54 51 67 68 -54 -70 callsubr
          -1179 -412 1 callsubr
        </CharString>
        <CharString name="Wdotaccent">
          2229 1196 53 callsubr
          -1005 -409 1 callsubr
        </CharString>
        <CharString name="Wdotbelow">
          2229 191 1167 rmoveto
          370 -1169 215 0 342 1099 330 -1099 218 0 366 1150 55 176 32 28 119 17 rlinecurve
          75 -447 -75 vlineto
          148 -21 13 -31 -46 -162 rrcurveto
          -251 -884 -258 897 -44 153 11 28 143 20 rlinecurve
          75 -604 -75 vlineto
          145 -21 13 -27 -43 -154 rrcurveto
          -253 -896 -260 895 -43 151 14 32 147 20 rlinecurve
          75 -631 -75 vlineto
          112 -16 36 -27 51 -159 rrcurveto
          926 -1340 172 callsubr
        </CharString>
        <CharString name="Wgrave">
          2229 1253 71 callsubr
          -721 -666 1 callsubr
        </CharString>
        <CharString name="X">
          1425 283 297 32 callsubr
        </CharString>
        <CharString name="Xdieresis">
          1425 619 6 callsubr
          53 51 67 68 -53 51 -68 -67 -55 -51 -68 -67 54 -51 68 hvcurveto
          -684 -1282 32 callsubr
        </CharString>
        <CharString name="Xdotaccent">
          1425 792 -69 callsubr
          -66 callsubr
          -509 -1279 32 callsubr
        </CharString>
        <CharString name="Xigreek">
          1367 1274 1444 rmoveto
          -1181 hlineto
          234 callsubr
          351 hlineto
          241 73 -34 -186 47 hvcurveto
          71 hlineto
          -697 -340 rmoveto
          178 hlineto
          146 42 -42 -147 27 hvcurveto
          66 471 -66 hlineto
          -146 -27 -42 -41 -146 hhcurveto
          -178 hlineto
          -145 -42 41 146 -27 hvcurveto
          -66 -471 66 hlineto
          147 27 42 42 145 hhcurveto
          690 -681 rmoveto
          19 466 rlineto
          -71 hlineto
          -229 -51 -69 -31 -277 hhcurveto
          -303 hlineto
          -277 -70 31 229 -50 hvcurveto
          -70 hlineto
          18 -466 rlineto
          endchar
        </CharString>
        <CharString name="Xigreek.1">
          1369 596 681 rmoveto
          49 -475 -112 hlineto
          -277 -70 31 229 -49 hvcurveto
          -71 hlineto
          18 -466 1201 0 18 466 rlineto
          -70 hlineto
          -229 -50 -70 -31 -277 hhcurveto
          -112 475 50 hlineto
          145 42 -42 -147 26 hvcurveto
          67 471 -67 hlineto
          -146 -27 -41 -41 -145 hhcurveto
          -50 465 136 hlineto
          241 73 -34 -186 47 hvcurveto
          71 hlineto
          -17 423 -1181 0 234 callsubr
          136 -465 -49 hlineto
          -146 -41 41 146 -27 hvcurveto
          -67 -471 67 hlineto
          147 26 42 42 146 hhcurveto
          endchar
        </CharString>
        <CharString name="Y">
          1397 224 1176 -73 callsubr
        </CharString>
        <CharString name="Yacute">
          1397 743 -36 callsubr
          -7 callsubr
          -425 -375 -73 callsubr
        </CharString>
        <CharString name="Ycircumflex">
          1397 578 -81 callsubr
          -6 callsubr
          16 callsubr
          -262 -375 -73 callsubr
        </CharString>
        <CharString name="Ydieresis">
          1397 601 -14 callsubr
          -70 callsubr
          -51 callsubr
          51 -67 -67 -55 -51 -68 -67 54 -51 68 hvcurveto
          -726 -403 -73 callsubr
        </CharString>
        <CharString name="Ydotaccent">
          1397 775 -69 callsubr
          -66 callsubr
          -551 -400 -73 callsubr
        </CharString>
        <CharString name="Ydotbelow">
          1397 224 1176 rmoveto
          326 -543 rlineto
          -416 vlineto
          -98 -22 -26 -147 -18 vhcurveto
          -75 639 -103 callgsubr
          430 vlineto
          311 514 98 -59 callgsubr
          148 -18 8 -37 -82 -151 rrcurveto
          -236 -427 -254 -81 callgsubr
          108 -17 33 -28 90 -148 rrcurveto
          485 -1349 -80 callsubr
          -100 callgsubr
        </CharString>
        <CharString name="Yericyrillic">
          2022 1300 190 callsubr
          97 21 26 -54 callgsubr
          -102 callsubr
          666 vlineto
          373 201 196 252 hvcurveto
          505 -245 rmoveto
          1038 78 callsubr
          -104 callsubr
          89 callsubr
          -18 -21 -138 -18 vhcurveto
          -75 614 74 callsubr
          -825 236 -11 callgsubr
        </CharString>
        <CharString name="Ygrave">
          1397 832 1551 rmoveto
          94 -19 callgsubr
          -268 -657 -73 callsubr
        </CharString>
        <CharString name="Yhookabove">
          1397 805 161 callsubr
          -581 -712 -73 callsubr
        </CharString>
        <CharString name="Yicyrillic">
          735 193 -14 callsubr
          -70 callsubr
          -51 callsubr
          67 callsubr
          -24 -1376 -83 callsubr
          -104 callsubr
          -95 callsubr
          -84 callsubr
        </CharString>
        <CharString name="Ymacron">
          1397 493 -46 callgsubr
          -269 -570 -73 callsubr
        </CharString>
        <CharString name="Ytilde">
          1397 898 168 callsubr
          -674 -386 -73 callsubr
        </CharString>
        <CharString name="Z">
          1296 1206 hmoveto
          -67 callsubr
          18 callsubr
        </CharString>
        <CharString name="Zacute">
          1296 626 -75 callsubr
          674 -1551 rmoveto
          -67 callsubr
          18 callsubr
        </CharString>
        <CharString name="Zcaron">
          1296 881 -71 callsubr
          -39 callsubr
          233 -1849 rmoveto
          -67 callsubr
          18 callsubr
        </CharString>
        <CharString name="Zcircumflex">
          1296 461 -81 callsubr
          -6 callsubr
          16 callsubr
          837 -1551 rmoveto
          -67 callsubr
          18 callsubr
        </CharString>
        <CharString name="Zdotaccent">
          1296 658 -69 callsubr
          -66 callsubr
          548 -1576 rmoveto
          -67 callsubr
          18 callsubr
        </CharString>
        <CharString name="Zdotbelow">
          1296 1206 hmoveto
          -67 callsubr
          71 hlineto
          49 47 callsubr
          577 -181 -80 callsubr
          -99 callgsubr
        </CharString>
        <CharString name="Zecyrillic">
          1288 1204 419 rmoveto
          228 -188 113 -247 21 vhcurveto
          211 34 171 113 190 vvcurveto
          222 -191 132 -363 -195 -167 -52 -58 -86 vhcurveto
          -11 -325 rlineto
          71 hlineto
          221 52 118 108 190 hhcurveto
          180 89 -111 -169 -180 -112 -108 -200 hvcurveto
          -133 -91 133 hlineto
          231 128 -107 -199 -209 -134 -114 -201 -180 -134 97 240 -56 hvcurveto
          -70 hlineto
          12 -325 rlineto
          -63 95 177 -55 183 hhcurveto
          347 280 158 289 hvcurveto
          endchar
        </CharString>
        <CharString name="Zetagreek">
          1296 1206 hmoveto
          -67 callsubr
          18 callsubr
        </CharString>
        <CharString name="Zhecyrillic">
          2082 360 hmoveto
          415 697 rlineto
          118 -500 hlineto
          -86 -18 -19 -130 -17 vhcurveto
          -75 579 75 vlineto
          -130 17 -18 19 86 vvcurveto
          500 117 vlineto
          415 -697 rlineto
          380 71 hlineto
          -76 23 -45 45 -130 217 rrcurveto
          -332 555 214 234 149 159 59 42 126 23 rlinecurve
          75 -488 -75 vlineto
          148 -15 11 -42 -99 -121 -334 -402 rcurveline
          -115 458 hlineto
          86 18 19 130 17 vhcurveto
          75 -579 -75 vlineto
          130 -17 18 -19 -86 vvcurveto
          -458 -116 vlineto
          -333 402 -100 121 12 42 147 15 rlinecurve
          75 -487 -75 vlineto
          125 -23 55 -41 148 -159 rrcurveto
          225 -248 -324 -542 -130 -217 -45 -45 -76 -23 rlinecurve
          -71 vlineto
          endchar
        </CharString>
        <CharString name="Zlinebelow">
          1296 1206 hmoveto
          -67 callsubr
          71 hlineto
          49 47 callsubr
          286 -371 rmoveto
          582 140 -582 hlineto
          endchar
        </CharString>
        <CharString name="a">
          1153 377 -22 -99 callsubr
        </CharString>
        <CharString name="a.dnum">
          730 236 -13 rmoveto
          94 73 38 55 40 callgsubr
          -1 -10 hhcurveto
          -31 -25 19 229 callsubr
          -91 hvcurveto
          -37 vlineto
          -122 -25 rlineto
          -177 -36 -64 -61 91 callgsubr
          20 vhcurveto
          48 9 -77 callgsubr
        </CharString>
        <CharString name="a.numr">
          724 236 655 rmoveto
          94 73 38 55 31 hvcurveto
          -57 14 61 -32 69 hhcurveto
          52 43 14 18 24 hvcurveto
          50 vlineto
          -2 -6 -10 -1 -10 hhcurveto
          -31 -25 18 44 hvcurveto
          231 vlineto
          139 -98 61 -163 -161 -106 -65 -79 -47 37 -32 51 50 38 36 47 25 -11 21 -17 15 vhcurveto
          5 18 21 2 22 hhcurveto
          81 50 -36 -90 hvcurveto
          -38 vlineto
          -122 -25 rlineto
          -177 -36 -64 -60 91 callgsubr
          19 vhcurveto
          48 10 -77 callgsubr
        </CharString>
        <CharString name="a.sups">
          730 236 830 rmoveto
          94 73 38 54 40 callgsubr
          0 -10 hhcurveto
          -31 -25 18 229 callsubr
          -90 hvcurveto
          -38 vlineto
          -122 -25 rlineto
          -177 -36 -64 -60 -83 vvcurveto
          -79 69 -57 103 vhcurveto
          16 168 rmoveto
          52 34 32 93 20 vhcurveto
          48 9 -77 callgsubr
        </CharString>
        <CharString name="aacute">
          1153 493 -86 callsubr
          -21 -1164 -99 callsubr
        </CharString>
        <CharString name="abreve">
          1153 537 51 callsubr
          -3 17 hvcurveto
          -87 -7 hlineto
          -99 -87 -74 -139 -137 -89 75 98 vhcurveto
          7 -86 vlineto
          -89 callgsubr
          111 -146 205 vhcurveto
          -160 -1182 -99 callsubr
        </CharString>
        <CharString name="abreveacute">
          56 callgsubr
          291 -300 rmoveto
          178 122 99 158 -8 59 callsubr
          -87 88 callsubr
          -8 122 -99 177 hhcurveto
          -160 -1139 -99 callsubr
        </CharString>
        <CharString name="abrevecyrillic">
          1153 538 1154 rmoveto
          196 128 114 138 81 -49 49 -72 -68 -47 -52 -64 -59 42 -48 53 -5 hvcurveto
          -40 -42 -63 -24 -79 hhcurveto
          -78 -64 24 40 -41 hvcurveto
          53 5 43 48 59 vvcurveto
          64 -48 52 -67 -74 -48 -49 -81 -138 128 -114 197 vhcurveto
          -161 -1176 -99 callsubr
        </CharString>
        <CharString name="abrevedotbelow">
          1153 537 51 callsubr
          -3 17 hvcurveto
          -87 -7 hlineto
          -99 -87 -74 -139 -137 -89 75 98 vhcurveto
          7 -86 vlineto
          -89 callgsubr
          111 -146 205 vhcurveto
          -160 -1182 31 callsubr
          233 -697 -56 callsubr
        </CharString>
        <CharString name="abrevegrave">
          36 callgsubr
          291 -558 rmoveto
          178 122 99 158 -8 59 callsubr
          -87 88 callsubr
          -8 122 -99 177 hhcurveto
          -160 -1139 -99 callsubr
        </CharString>
        <CharString name="abrevehookabove">
          1153 530 1660 rmoveto
          -80 -66 -32 -38 -39 18 callgsubr
          126 29 74 47 90 vvcurveto
          88 -89 50 -105 vhcurveto
          7 -543 rmoveto
          178 122 99 158 -8 59 callsubr
          -87 88 callsubr
          -8 122 -99 177 hhcurveto
          -160 -1139 -99 callsubr
        </CharString>
        <CharString name="abrevetilde">
          1153 659 108 callsubr
          25 callgsubr
          -122 -325 rmoveto
          178 122 99 158 -8 59 callsubr
          -87 88 callsubr
          -8 122 -99 177 hhcurveto
          -160 -1139 -99 callsubr
        </CharString>
        <CharString name="acaron">
          1153 765 -61 callsubr
          -32 callgsubr
          -92 callgsubr
          -483 -1550 -99 callsubr
        </CharString>
        <CharString name="acircumflex">
          1153 310 -9 callsubr
          225 84 callsubr
          -30 callsubr
          162 -1164 -99 callsubr
        </CharString>
        <CharString name="acircumflexacute">
          56 callgsubr
          -302 vmoveto
          291 104 292 -104 0 79 -266 186 -52 0 -265 -186 rlineto
          131 -1216 -99 callsubr
        </CharString>
        <CharString name="acircumflexdotbelow">
          1153 310 -9 callsubr
          225 84 callsubr
          -30 callsubr
          162 -1164 31 callsubr
          233 -697 -56 callsubr
        </CharString>
        <CharString name="acircumflexgrave">
          36 callgsubr
          -560 vmoveto
          291 104 292 -104 0 79 -266 186 -52 0 -265 -186 rlineto
          131 -1216 -99 callsubr
        </CharString>
        <CharString name="acircumflexhookabove">
          1153 762 177 callsubr
          74 47 90 vvcurveto
          88 -90 -53 callgsubr
          -266 186 -52 0 -265 -186 rlineto
          131 -1216 -99 callsubr
        </CharString>
        <CharString name="acircumflextilde">
          1153 659 108 callsubr
          25 callgsubr
          -413 -327 22 callsubr
          -266 186 -52 0 -265 -186 rlineto
          131 -1216 -99 callsubr
        </CharString>
        <CharString name="acute">
          1024 467 -86 callsubr
          endchar
        </CharString>
        <CharString name="acutecmb">
          0 -45 -86 callsubr
          endchar
        </CharString>
        <CharString name="acutecmb.short">
          0 -33 1111 rmoveto
          338 282 rlineto
          9 -290 vlineto
          -141 -291 rlineto
          endchar
        </CharString>
        <CharString name="acutedotaccentcmb">
          7 callgsubr
          -184 rmoveto
          164 vlineto
          -584 -182 rlineto
          -77 vlineto
          endchar
        </CharString>
        <CharString name="acutedotaccentcmb.short">
          0 1762 vmoveto
          -58 callgsubr
          48 -40 60 77 callgsubr
          endchar
        </CharString>
        <CharString name="acyrillic">
          1153 377 -22 -99 callsubr
        </CharString>
        <CharString name="adblgrave">
          1153 302 54 callsubr
          49 callgsubr
          -390 -1164 -99 callsubr
        </CharString>
        <CharString name="adieresis">
          1153 305 1198 rmoveto
          120 callsubr
          57 callgsubr
          -393 -1220 -99 callsubr
        </CharString>
        <CharString name="adieresismacron">
          1153 245 13 callsubr
          125 -460 rmoveto
          58 46 43 57 59 -46 43 -58 hvcurveto
          27 callsubr
          181 callsubr
          -328 -1159 -99 callsubr
        </CharString>
        <CharString name="adotaccent">
          1153 537 10 callsubr
          -87 callgsubr
          -160 -1211 -99 callsubr
        </CharString>
        <CharString name="adotbelow">
          1153 377 -22 31 callsubr
          233 -697 -56 callsubr
        </CharString>
        <CharString name="adotmacron">
          1153 245 2 callgsubr
          -50 -47 -63 -64 50 -46 63 hvcurveto
          -160 -1157 -99 callsubr
        </CharString>
        <CharString name="ae">
          1685 383 -22 146 callsubr
        </CharString>
        <CharString name="aeacute">
          1685 807 -86 callsubr
          -329 -1164 146 callsubr
        </CharString>
        <CharString name="aemacron">
          1685 539 -64 callsubr
          -156 -1417 146 callsubr
        </CharString>
        <CharString name="agrave">
          1153 583 -74 callgsubr
          155 -1530 -99 callsubr
        </CharString>
        <CharString name="ahookabove">
          1153 577 -13 callgsubr
          -200 -1549 -99 callsubr
        </CharString>
        <CharString name="ainvertedbreve">
          1153 537 1509 rmoveto
          -205 -111 -145 -154 -21 1 -20 3 -17 hvcurveto
          86 6 hlineto
          100 88 73 138 6 callgsubr
          -160 -1531 -99 callsubr
        </CharString>
        <CharString name="alphagreek">
          1321 474 -21 194 callsubr
        </CharString>
        <CharString name="alphatonosgreek">
          1321 655 1142 rmoveto
          215 366 rlineto
          10 -252 vlineto
          -57 -376 rlineto
          -87 -1163 194 callsubr
        </CharString>
        <CharString name="amacron">
          1153 224 1239 rmoveto
          627 156 -627 hlineto
          153 -1417 -99 callsubr
        </CharString>
        <CharString name="ampersand">
          1634 521 -25 rmoveto
          190 141 85 158 145 hvcurveto
          225 -218 rlineto
          394 71 hlineto
          -75 24 -68 49 -183 176 rrcurveto
          -118 114 132 173 136 175 50 33 106 13 rlinecurve
          76 vlineto
          -452 -1 rlineto
          -75 vlineto
          140 -21 21 -42 -96 -142 rrcurveto
          -91 -137 -328 319 -9 10 -10 9 -9 8 rlinecurve
          215 84 115 111 144 vvcurveto
          174 -149 127 -249 -260 -170 -154 -192 -120 50 -98 122 -136 vhcurveto
          -239 -84 -117 -139 -1 -180 rrcurveto
          -235 186 -159 256 vhcurveto
          -1 1225 rmoveto
          104 71 65 103 111 66 -90 -122 -1 vhcurveto
          -1 -115 -51 -90 -108 -68 rrcurveto
          -141 143 -49 78 95 vvcurveto
          -182 -718 rmoveto
          102 47 76 101 58 vhcurveto
          31 -32 35 -35 39 -38 359 -349 rcurveline
          -89 -88 -87 -38 -95 hhcurveto
          -187 -155 140 205 hvcurveto
          endchar
        </CharString>
        <CharString name="anoteleiagreek">
          550 275 704 rmoveto
          50 callgsubr
        </CharString>
        <CharString name="aogonek">
          1152 377 -22 rmoveto
          157 126 69 90 53 hvcurveto
          -96 24 92 -54 112 8 7 0 8 hhcurveto
          -186 -106 -67 -93 -99 vvcurveto
          -109 92 -66 115 92 83 36 56 40 vhcurveto
          74 vlineto
          -17 -17 -33 -10 -38 hhcurveto
          -54 -47 35 72 87 54 80 130 108 hvcurveto
          71 vlineto
          -5 -12 -17 -3 -19 hhcurveto
          -57 -45 34 85 hvcurveto
          472 vlineto
          233 -161 103 -261 -257 -183 -106 -140 -74 59 -52 76 79 58 55 73 49 -27 42 -39 21 vhcurveto
          17 42 49 10 54 hhcurveto
          146 92 -65 -177 hvcurveto
          -83 vlineto
          -218 -46 rlineto
          -294 -63 -113 -100 -157 vvcurveto
          -147 122 -104 175 vhcurveto
          -21 297 rmoveto
          106 64 64 180 41 vhcurveto
          105 22 rlineto
          -306 vlineto
          -56 -36 -66 -34 -81 hhcurveto
          -95 -71 59 104 hvcurveto
          endchar
        </CharString>
        <CharString name="approxequal">
          1217 867 775 rmoveto
          215 callsubr
          -488 vmoveto
          215 callsubr
          endchar
        </CharString>
        <CharString name="aring">
          1153 249 61 callsubr
          163 -105 callgsubr
          -163 -162 -126 176 callsubr
          -57 -1356 -99 callsubr
        </CharString>
        <CharString name="aringacute">
          1153 829 1514 rmoveto
          164 vlineto
          -583 -182 rlineto
          -76 vlineto
          328 70 callgsubr
          -135 -91 -56 -85 -86 91 -56 135 hvcurveto
          62 76 rmoveto
          -50 hlineto
          -45 -25 27 39 39 26 27 44 hvcurveto
          50 hlineto
          46 24 -27 -39 -39 -24 -27 -46 hvcurveto
          -185 -1199 -99 callsubr
        </CharString>
        <CharString name="aringbelow">
          1153 377 -22 31 callsubr
          -55 -569 rmoveto
          -113 126 -75 162 162 127 74 114 113 -127 75 -162 -162 -126 -75 -113 vhcurveto
          185 hmoveto
          67 44 45 59 60 44 -45 -67 -68 -44 -44 -60 -59 -44 45 67 vhcurveto
          endchar
        </CharString>
        <CharString name="asciicircum">
          1217 572 1444 rmoveto
          -454 -591 99 -93 390 505 389 -505 103 93 -453 591 rlineto
          endchar
        </CharString>
        <CharString name="asciitilde">
          1217 867 537 rmoveto
          -145 -173 231 -190 hhcurveto
          -173 -111 -119 -258 hvcurveto
          130 hlineto
          166 2 60 64 90 147 173 -231 190 hhcurveto
          172 111 119 258 hvcurveto
          -130 hlineto
          -165 -2 -59 -65 -92 hhcurveto
          endchar
        </CharString>
        <CharString name="asterisk">
          802 384 1131 rmoveto
          34 hlineto
          60 205 rlineto
          83 29 -51 53 -55 hhcurveto
          -56 -50 -53 -83 29 hvcurveto
          97 -206 rmoveto
          16 -31 204 51 rlineto
          86 17 20 70 -27 48 -28 49 -72 17 -56 -68 rrcurveto
          -200 -184 rmoveto
          16 31 -142 153 rlineto
          -57 67 -71 -17 -28 -48 -28 -49 20 -69 87 -17 rrcurveto
          219 -85 rmoveto
          -16 31 -203 -51 rlineto
          -86 -17 -20 -71 27 -47 28 -49 71 -17 57 68 rrcurveto
          199 184 rmoveto
          -16 -30 143 -154 rlineto
          56 -67 72 17 28 48 28 49 -20 69 -86 17 rrcurveto
          -224 18 rmoveto
          -34 hlineto
          -60 -204 rlineto
          -83 -29 51 -54 55 hhcurveto
          56 50 53 84 -29 hvcurveto
          endchar
        </CharString>
        <CharString name="at">
          2026 570 377 rmoveto
          -209 83 -126 145 122 117 77 155 71 vhcurveto
          -1 -3 -3 -18 -2 vvcurveto
          -142 -12 76 -93 179 hhcurveto
          315 272 273 409 438 -344 295 -499 -580 -419 -451 -558 -512 358 -328 448 175 180 45 75 93 hvcurveto
          1 77 rlineto
          -73 -128 -136 -22 -163 hhcurveto
          -405 -308 283 464 491 374 408 512 432 293 -245 -398 -355 -222 -197 -174 -75 -32 38 107 23 hvcurveto
          148 693 -136 0 -113 -117 rlineto
          84 -32 -71 56 -112 hhcurveto
          -266 -186 -311 -308 hvcurveto
          247 -6 rmoveto
          228 106 298 163 71 43 -54 -87 2 vhcurveto
          -69 -323 rlineto
          -134 -29 -91 -118 -95 hhcurveto
          -69 -32 75 115 hvcurveto
          endchar
        </CharString>
        <CharString name="atilde">
          1153 665 48 callsubr
          -72 callgsubr
          -62 hhcurveto
          -21 callgsubr
          4 23 34 44 hhcurveto
          30 25 -14 -25 68 callsubr
          -288 -1208 -99 callsubr
        </CharString>
        <CharString name="austral">
          1456 214 289 rmoveto
          -61 -170 -28 -27 -119 -17 rrcurveto
          -75 445 75 vlineto
          -150 21 -21 31 53 159 rrcurveto
          33 97 556 0 36 -104 51 -150 -21 -34 -148 -20 rlinecurve
          -75 614 75 vlineto
          -113 16 -32 28 -57 158 -38 106 rcurveline
          240 67 -264 hlineto
          -76 212 rlineto
          340 67 -364 hlineto
          -258 717 -201 0 -258 -717 rlineto
          -367 -67 343 hlineto
          -77 -212 rlineto
          -266 -67 242 hlineto
          235 346 rmoveto
          160 475 162 -475 rlineto
          -416 -279 rmoveto
          71 212 368 0 72 -212 rlineto
          endchar
        </CharString>
        <CharString name="austral.tnum">
          1220 -3 447 rmoveto
          -67 196 vlineto
          -28 -93 -49 -170 -20 -29 -98 -13 rlinecurve
          -75 367 75 vlineto
          -120 15 -15 26 47 169 rrcurveto
          26 95 433 0 28 -101 44 -162 -14 -26 -123 -16 rlinecurve
          -75 551 75 vlineto
          -97 12 -19 30 -49 163 -29 100 rcurveline
          195 67 -215 hlineto
          -62 212 rlineto
          277 67 -296 hlineto
          -211 720 -211 0 -211 -720 rlineto
          -297 -67 278 hlineto
          -63 -212 rlineto
          186 279 rmoveto
          123 446 121 -446 rlineto
          -321 -279 rmoveto
          58 212 281 0 58 -212 rlineto
          endchar
        </CharString>
        <CharString name="b">
          -61 callgsubr
          endchar
        </CharString>
        <CharString name="backslash">
          710 520 -280 rmoveto
          169 hlineto
          -498 1860 rlineto
          -169 hlineto
          endchar
        </CharString>
        <CharString name="baht">
          1387 71 30 rmoveto
          609 -219 67 220 hlineto
          307 14 242 135 252 vvcurveto
          216 -174 121 -260 16 vhcurveto
          199 21 167 99 187 vvcurveto
          194 -170 115 -311 12 vhcurveto
          219 -67 -218 -609 -75 vlineto
          58 callgsubr
          436 1222 rmoveto
          112 -4 22 -1 20 -1 19 -2 rlinecurve
          -518 vlineto
          -8 -8 -1 -9 hhcurveto
          -148 hlineto
          434 260 rmoveto
          -142 -70 -83 -124 -26 vhcurveto
          497 vlineto
          135 -36 59 -88 -122 vvcurveto
          -434 -347 rmoveto
          148 -1 rlineto
          9 8 0 -1 8 hvcurveto
          -586 vlineto
          -20 -2 -20 -1 -21 -1 -112 -4 rcurveline
          493 303 rmoveto
          -156 -93 -93 -160 -35 vhcurveto
          568 vlineto
          164 -27 89 -102 -155 vvcurveto
          endchar
        </CharString>
        <CharString name="baht.tnum">
          1220 46 35 rmoveto
          560 -224 67 225 hlineto
          282 13 232 136 241 33 callgsubr
          179 -151 113 -295 10 vhcurveto
          225 -67 -224 -560 -75 vlineto
          59 callgsubr
          413 1214 rmoveto
          105 -3 rlineto
          14 14 -1 -1 14 hvcurveto
          -519 vlineto
          -8 -9 -1 -8 hhcurveto
          -122 hlineto
          388 269 rmoveto
          -134 -61 -92 -113 -31 vhcurveto
          495 vlineto
          113 -34 61 -84 -120 vvcurveto
          -388 -354 rmoveto
          122 -1 rlineto
          8 9 0 -1 8 hvcurveto
          -587 vlineto
          -1 -14 -14 -1 -14 hhcurveto
          -105 -3 rlineto
          447 298 rmoveto
          -155 -93 -93 -140 -34 vhcurveto
          568 vlineto
          149 -29 84 -101 -156 vvcurveto
          endchar
        </CharString>
        <CharString name="bar">
          710 271 -280 rmoveto
          169 1860 -169 hlineto
          endchar
        </CharString>
        <CharString name="bdotaccent">
          1257 297 1629 54 callgsubr
          874 -1115 201 callsubr
          endchar
        </CharString>
        <CharString name="bdotbelow">
          -61 callgsubr
          -245 -911 -42 callsubr
        </CharString>
        <CharString name="becyrillic">
          1271 1185 499 rmoveto
          302 -205 193 -314 -218 -160 -117 -167 -74 vhcurveto
          -3 25 -1 27 28 vvcurveto
          207 91 164 320 31 vhcurveto
          125 13 295 29 87 77 15 208 rlinecurve
          -76 hlineto
          -18 -50 -52 -14 -224 -24 -226 -25 -138 -62 -110 -103 rrcurveto
          -134 -127 -73 -203 -317 vvcurveto
          -368 189 -248 348 300 256 202 319 vhcurveto
          -294 -15 rmoveto
          -256 -87 -149 -161 -158 -92 169 245 245 84 157 167 152 95 -164 -247 vhcurveto
          endchar
        </CharString>
        <CharString name="betagreek">
          1234 136 -460 rmoveto
          286 hlineto
          -3 207 -4 182 -2 160 rrcurveto
          -62 56 103 -50 126 hhcurveto
          229 223 151 284 262 -169 165 -228 28 hvcurveto
          163 18 159 112 181 vvcurveto
          202 -159 137 -288 -280 -210 -149 -387 vhcurveto
          265 110 rmoveto
          211 71 111 149 132 67 -103 -156 -167 -99 -97 -194 -2 vhcurveto
          -192 vlineto
          229 -6 127 -123 -202 vvcurveto
          -183 -112 -90 -141 -97 -81 37 57 -43 vhcurveto
          -7 489 -1 265 151 vvcurveto
          endchar
        </CharString>
        <CharString name="bitcoin">
          1379 71 30 rmoveto
          448 -219 67 219 99 hlineto
          40 39 2 4 38 hvcurveto
          -225 67 234 vlineto
          242 42 177 130 215 vvcurveto
          216 -173 121 -261 16 vhcurveto
          199 21 167 99 187 vvcurveto
          165 -123 108 -228 36 vhcurveto
          231 -67 -223 vlineto
          3 -37 -39 2 -41 hhcurveto
          -99 218 -67 -218 -448 -75 hlineto
          58 callgsubr
          862 955 rmoveto
          -174 -105 -85 -181 -1 vhcurveto
          -140 527 hlineto
          104 -4 rlineto
          227 -7 95 -101 -155 vvcurveto
          58 -640 rmoveto
          -194 -142 -97 -238 -8 vhcurveto
          -104 -4 0 596 140 -1 rlineto
          222 -1 122 -109 -182 vvcurveto
          endchar
        </CharString>
        <CharString name="bitcoin.tnum">
          1220 46 35 rmoveto
          402 -224 67 224 111 hlineto
          34 33 2 3 33 hvcurveto
          -229 67 239 vlineto
          225 42 169 129 205 33 callgsubr
          153 -110 104 -216 34 vhcurveto
          235 -67 -227 vlineto
          3 -32 -33 1 -35 hhcurveto
          -111 223 -67 -223 -402 -75 hlineto
          59 callgsubr
          798 958 rmoveto
          -167 -94 -101 -171 -1 vhcurveto
          -117 525 hlineto
          99 -3 rlineto
          183 -5 100 -94 -154 vvcurveto
          59 -651 rmoveto
          -191 -144 -98 -198 -5 vhcurveto
          -99 -3 0 594 117 -1 rlineto
          206 -1 118 -111 -184 vvcurveto
          endchar
        </CharString>
        <CharString name="blinebelow">
          -61 callgsubr
          -537 -853 -33 callsubr
        </CharString>
        <CharString name="braceleft">
          710 462 993 rmoveto
          242 vlineto
          152 25 117 170 vhcurveto
          76 -44 vlineto
          -261 -130 -130 -227 hvcurveto
          -323 vlineto
          -155 -81 -59 -115 vhcurveto
          -69 vlineto
          115 81 -60 -155 hvcurveto
          -325 vlineto
          -227 130 -130 261 vhcurveto
          44 76 hlineto
          -170 -25 117 153 hvcurveto
          244 vlineto
          206 -98 108 -200 27 vhcurveto
          201 28 97 107 207 vvcurveto
          endchar
        </CharString>
        <CharString name="braceright">
          710 247 993 rmoveto
          -207 98 -107 201 -28 vhcurveto
          -200 -27 -99 -108 -206 vvcurveto
          -244 vlineto
          -153 -24 -117 -169 vhcurveto
          -76 43 vlineto
          261 130 130 227 hvcurveto
          325 vlineto
          155 81 60 115 vhcurveto
          69 vlineto
          -115 -81 59 155 hvcurveto
          323 vlineto
          227 -130 130 -261 vhcurveto
          -43 -76 hlineto
          169 24 -117 -152 hvcurveto
          endchar
        </CharString>
        <CharString name="bracketleft">
          710 175 -282 rmoveto
          470 2 0 76 -230 4 0 1700 230 4 0 76 -470 2 rlineto
          endchar
        </CharString>
        <CharString name="bracketright">
          710 535 1582 rmoveto
          -469 -2 0 -76 229 -4 0 -1700 -229 -4 0 -76 469 -2 rlineto
          endchar
        </CharString>
        <CharString name="breve">
          1024 512 1160 rmoveto
          205 112 146 154 20 -1 21 -4 17 hvcurveto
          -86 118 callsubr
          -4 -18 -1 137 callsubr
          endchar
        </CharString>
        <CharString name="breveacutecmb">
          -57 callgsubr
          292 -300 106 callsubr
        </CharString>
        <CharString name="breveacutecmb.short">
          -90 callgsubr
          299 -245 110 callsubr
        </CharString>
        <CharString name="brevebelowcmb">
          0 -455 vmoveto
          191 104 131 138 19 -1 18 -4 62 callgsubr
          -80 vlineto
          -4 -16 -1 -51 callgsubr
        </CharString>
        <CharString name="brevecmb">
          0 1160 vmoveto
          205 112 146 154 20 -1 21 -4 17 hvcurveto
          -86 118 callsubr
          -4 -18 -1 137 callsubr
          endchar
        </CharString>
        <CharString name="brevecmb.short">
          0 1143 vmoveto
          185 102 -106 callgsubr
          -81 -7 hlineto
          -88 -79 -66 -123 -123 -80 67 87 vhcurveto
          7 -80 123 callsubr
          endchar
        </CharString>
        <CharString name="brevecyrilliccmb">
          0 1154 vmoveto
          39 callgsubr
          -1 callgsubr
          endchar
        </CharString>
        <CharString name="brevecyrilliccmb.short">
          0 1581 vmoveto
          196 126 104 131 74 -47 48 -68 -66 -46 -49 -61 -52 36 -43 47 -9 hvcurveto
          -35 -43 -62 -21 -73 hhcurveto
          -74 -62 21 35 -43 hvcurveto
          47 8 36 44 52 vvcurveto
          61 -46 49 -66 -68 -47 -48 -74 -131 127 -104 196 vhcurveto
          endchar
        </CharString>
        <CharString name="brevegravecmb">
          0 -292 125 callsubr
          292 -558 106 callsubr
        </CharString>
        <CharString name="brevegravecmb.short">
          0 -299 96 callgsubr
          299 -465 110 callsubr
        </CharString>
        <CharString name="brevehookabovecmb">
          0 -8 1660 rmoveto
          -79 -67 -32 -38 -38 hvcurveto
          -62 vlineto
          15 26 48 14 47 67 callgsubr
          74 47 90 vvcurveto
          88 -90 50 -105 vhcurveto
          8 -543 106 callsubr
        </CharString>
        <CharString name="brevehookabovecmb.short">
          0 -8 1990 rmoveto
          -81 31 callgsubr
          -79 -16 hvcurveto
          68 -41 rlineto
          129 26 76 39 76 vvcurveto
          75 -91 44 -108 vhcurveto
          8 -460 110 callsubr
        </CharString>
        <CharString name="brevetildecmb">
          213 callsubr
          -122 -325 106 callsubr
        </CharString>
        <CharString name="brevetildecmb.short">
          0 125 1801 rmoveto
          103 72 60 117 hvcurveto
          -86 hlineto
          -45 29 callsubr
          7 12 -39 hvcurveto
          -34 11 rlineto
          14 -46 -43 11 -50 hhcurveto
          -102 -73 -60 -118 1 hvcurveto
          86 hlineto
          45 27 19 44 27 28 -6 -13 40 vhcurveto
          33 -10 rlineto
          -15 46 43 -10 50 hhcurveto
          -125 -271 110 callsubr
        </CharString>
        <CharString name="brokenbar">
          710 271 789 rmoveto
          169 791 -169 hlineto
          -1860 vmoveto
          169 791 -169 hlineto
          endchar
        </CharString>
        <CharString name="bullet">
          772 386 360 rmoveto
          125 102 102 126 126 -102 61 callgsubr
        </CharString>
        <CharString name="c">
          1059 603 -22 5 callsubr
        </CharString>
        <CharString name="cacute">
          1059 568 -86 callsubr
          130 -1164 5 callsubr
        </CharString>
        <CharString name="caret">
          550 244 hmoveto
          -287 -360 80 -80 236 296 238 -296 83 80 -286 360 rlineto
          endchar
        </CharString>
        <CharString name="caron">
          1024 740 -61 callsubr
          7 callsubr
          endchar
        </CharString>
        <CharString name="caroncmb">
          0 228 -61 callsubr
          7 callsubr
          endchar
        </CharString>
        <CharString name="caroncmb.short">
          0 223 1408 rmoveto
          -210 -144 -209 144 -95 0 211 -290 183 0 212 290 rlineto
          endchar
        </CharString>
        <CharString name="carondotaccentcmb">
          7 callgsubr
          -20 rmoveto
          -292 -104 -292 104 0 -79 267 -186 51 0 266 186 rlineto
          endchar
        </CharString>
        <CharString name="carondotaccentcmb.short">
          0 1783 vmoveto
          60 48 40 54 53 -48 40 -60 -60 -48 -40 -53 -54 48 -40 60 8 callgsubr
          endchar
        </CharString>
        <CharString name="caronslovak">
          1024 456 1106 rmoveto
          187 417 -217 0 -45 -417 rlineto
          endchar
        </CharString>
        <CharString name="caronslovakcmb">
          0 93 1106 -47 callgsubr
          endchar
        </CharString>
        <CharString name="ccaron">
          1059 840 -61 callsubr
          -32 callgsubr
          -92 callgsubr
          -332 -1550 5 callsubr
        </CharString>
        <CharString name="ccedilla">
          1059 567 -477 rmoveto
          -68 callgsubr
          -3 -4 0 -4 hhcurveto
          65 82 158 9 128 61 68 85 rlinecurve
          152 callsubr
          -298 200 -194 264 -23 -20 callgsubr
          -64 callgsubr
        </CharString>
        <CharString name="ccedillaacute">
          1059 568 -86 callsubr
          94 -1619 rmoveto
          -68 callgsubr
          -3 -4 0 -4 hhcurveto
          65 82 158 9 128 61 68 85 rlinecurve
          152 callsubr
          -298 200 -194 264 -23 -20 callgsubr
          -64 callgsubr
        </CharString>
        <CharString name="ccircumflex">
          1059 385 -9 callsubr
          225 84 callsubr
          -30 callsubr
          313 -1164 5 callsubr
        </CharString>
        <CharString name="cdotaccent">
          1059 613 20 callgsubr
          -10 -1211 5 callsubr
        </CharString>
        <CharString name="cedi">
          1353 765 -189 rmoveto
          67 200 hlineto
          175 2 173 48 81 58 11 321 rcurveline
          -70 hlineto
          -243 -58 -121 -82 -179 -4 -4 0 -4 hhcurveto
          1214 vlineto
          1 4 4 0 4 hhcurveto
          184 113 -96 -227 55 hvcurveto
          71 hlineto
          -12 321 -92 57 -137 45 -194 3 rlinecurve
          199 -67 -201 vlineto
          -388 -20 -274 -262 -424 vvcurveto
          -428 286 -260 376 -24 vhcurveto
          -364 732 rmoveto
          330 133 210 231 38 vhcurveto
          -1201 vlineto
          -226 46 -138 241 336 vvcurveto
          endchar
        </CharString>
        <CharString name="cedi.tnum">
          1220 696 -189 rmoveto
          67 201 hlineto
          153 4 147 40 79 48 12 318 rcurveline
          -71 hlineto
          -54 -230 -107 -79 -152 1 rrcurveto
          -3 -2 0 -2 hhcurveto
          1215 vlineto
          3 2 0 3 hhcurveto
          143 103 -89 -213 50 hvcurveto
          71 hlineto
          -11 317 -84 48 -119 37 -161 3 rlinecurve
          200 -67 -201 vlineto
          -355 -21 -254 -264 -421 vvcurveto
          -450 267 -243 342 -19 vhcurveto
          -313 732 rmoveto
          331 112 206 201 40 vhcurveto
          -1200 vlineto
          -199 44 -114 226 353 vvcurveto
          endchar
        </CharString>
        <CharString name="cedilla">
          1024 480 -477 rmoveto
          132 121 -73 callgsubr
          80 102 rlineto
          39 -64 vlineto
          -154 -194 1 -65 rlineto
          3 9 19 3 16 hhcurveto
          69 51 -79 callgsubr
          77 -28 92 hhcurveto
          endchar
        </CharString>
        <CharString name="cedillacmb">
          0 -32 -477 rmoveto
          -68 callgsubr
          -3 -4 0 -4 hhcurveto
          79 99 rlineto
          38 -64 vlineto
          -154 -190 -66 callgsubr
          -48 -28 -65 -52 -53 16 21 -31 hvcurveto
          -74 vlineto
          -41 42 76 -28 93 hhcurveto
          endchar
        </CharString>
</ttFont>
